<svg width="1440" height="740" viewBox="0 0 1440 740" fill="none" xmlns="http://www.w3.org/2000/svg">
<g clip-path="url(#clip0_1_3)">
<rect width="1440" height="740" fill="#121212"/>
<g clip-path="url(#clip1_1_3)">
<path d="M236.576 198.038C236.576 198.038 242.052 191.919 262.309 173.931C286.376 152.567 280.01 159.354 312.352 134.657C323.316 126.287 335.686 117.418 352.099 108.449C355.944 106.351 366.87 100.58 382.089 97.3132C392.908 94.9914 398.876 95.4456 400.978 95.6508C410.692 96.6034 417.63 100.181 421.7 102.324C430.842 107.141 436.332 112.925 439.097 115.898C443.832 120.984 446.524 125.429 447.173 126.519C447.965 127.85 451.78 134.411 453.876 143.511C454.62 146.75 455.204 149.311 455.274 152.92C455.352 157.03 454.668 158.236 455.395 158.833C458.638 161.494 479.274 143.919 482.713 140.973C498.55 127.396 504.486 123.266 517.729 112.02C533.571 98.5776 530.688 98.9349 559.333 74.1654C568.607 66.1507 576.301 59.1908 589.426 52.6369C594.609 50.0466 600.132 47.1239 607.632 45.3729C609.807 44.863 616.996 43.2986 626.522 43.7105C636.345 44.136 643.749 46.4545 646.965 47.5729C659.743 52.0304 667.714 59.029 670.418 61.5542C677.039 67.74 680.933 74.0703 683.119 78.369C687.731 87.423 688.874 95.4447 689.229 99.5382C690.397 113.02 683.615 120.226 686.482 122.434C689.908 125.071 701.079 116.651 711.312 109.866C723.173 102.005 735.822 96.0348 760.88 83.7962C775.696 76.5599 787.132 72.1771 810.014 63.4267C823.464 58.2775 839.667 52.8222 872.074 41.9196C898.946 32.8738 912.352 28.5724 931.704 26.288C947.092 24.4718 955.323 25.2206 962.9 27.3169C981.474 32.4587 992.087 44.5998 995.048 48.0898C1006.11 61.0991 1008.51 74.4884 1009.11 78.6323C1011.32 93.8854 1006.77 105.49 1004.34 111.461C1001.44 118.604 996.671 130.316 983.986 138.742C977.755 142.882 972.101 144.566 967.642 145.842C934.024 155.458 917.215 160.265 913.975 160.949C901.808 163.509 884.186 169.758 848.845 181.786C820.526 191.422 806.358 196.244 793.655 201.749C788.341 204.056 780.371 207.64 730.813 235.596C683.203 262.457 671.35 269.974 657.963 279.768C647.873 287.146 638.284 295.132 628.711 303.11C623.732 307.258 620.615 309.953 615.228 312.793C602.202 319.656 590.052 319.913 587.719 319.936C581.743 319.992 571.611 319.179 561.033 313.788C552.612 309.496 547.629 304.21 544.728 301.065C541.174 297.221 534.046 289.503 531.47 278.629C527.773 263.021 536.147 252.171 532.661 250.208C529.569 248.466 521.754 256.256 507.483 269.417C497.499 278.633 487.076 287.426 477.083 296.634C456.717 315.396 446.539 324.78 435.606 333.466C416.218 348.869 406.22 356.66 391.184 360.827C376.23 364.977 363.387 364.212 357.381 363.801C346.563 363.065 335.515 362.318 324.453 355.368C314.69 349.236 309.714 341.289 307.683 337.964C296.38 319.457 300.332 301.639 293.939 300.474C291.457 300.023 290.825 302.691 284.464 306.03C276.292 310.316 268.402 310.604 261.877 310.852C257.106 311.033 249.065 311.255 239.538 308.096C237.167 307.309 224.953 303.081 214.817 291.392C204.758 279.799 202.697 267.725 202 263.256C201.417 259.509 201.262 247.881 206.505 235.65C207.055 234.375 212.058 225.096 215.558 220.377C219.939 214.473 235.172 199.237 236.61 198.043L236.576 198.038Z" fill="#23A4DE"/>
<path d="M697.22 173.509C718.666 161.066 735.557 152.796 735.557 152.796C750.122 145.863 759.012 141.541 771.272 137.7C777.488 135.749 783.056 134.351 790.074 134.85C793.883 135.124 803.067 135.906 810.877 142.587C812.832 144.262 817.037 147.857 818.986 153.826C819.62 155.769 820.814 159.429 819.985 163.901C819.483 166.618 818.561 167.839 819.166 168.46C820.809 170.154 830.585 164.084 834.405 161.741C835.028 161.357 846.878 154.743 870.57 141.524C889.321 131.06 896.697 128.155 904.994 126.237C913.68 124.228 919.296 124.256 924.283 125.133C927.84 125.767 937.706 128.222 944.651 135.751C949.343 140.837 950.819 144.777 951.643 147.69C952.803 151.778 952.56 155.998 951.441 160.11C949.581 167.001 939.612 173.337 940.715 175.399C941.486 176.848 946.705 175.105 956.483 174.011C964.533 173.11 969.405 172.569 974.882 173.508C985.69 175.366 992.033 181.101 994.824 184.026C997.7 187.032 1004.56 194.119 1005.24 203.796C1005.39 205.934 1006.05 214.24 1000.29 221.266C996.901 225.401 992.773 227.29 988.668 229.16C982.788 231.845 977.894 232.685 972.563 233.563C952.576 236.856 945.935 237.697 945.935 237.697C920.449 240.943 917.573 241.871 911.756 243.057C902.356 245.474 903.949 244.948 894.836 248.472C887.405 251.341 883.145 251.475 879.215 251.339C867.305 250.935 858.725 245.894 856.202 243.796C851.37 239.79 846.399 233.605 845.983 227.357C845.814 224.795 846.448 221.785 845.046 221.162C843.822 220.619 841.327 221.874 839.52 223.141C836.682 225.133 831.677 228.616 827.609 231.366C819.79 236.646 810.285 241.512 799.576 246.982C785.028 254.427 779.215 256.343 774.856 257.53C765.941 259.96 761.528 259.754 759.147 259.506C750.435 258.603 744.305 254.503 741.585 252.382C739.122 250.456 734.942 247.123 732.526 241.227C731.878 239.654 729.451 233.221 731.657 226.06C732.639 222.883 734.19 220.651 734.571 220.128C734.943 219.605 735.187 219.247 735.73 218.653C737.35 216.865 738.223 216.266 738.621 215.573C739.56 213.925 734.544 217.553 730.73 219.872C726.284 222.575 726.254 222.786 724.43 223.717C719.151 226.398 714.099 226.754 712.65 226.849C704.004 227.377 698.086 225.586 694.291 223.48C690.523 221.388 685.259 216.962 681.902 211.919C677.618 205.489 676.936 195.017 679.998 189.474C681.206 187.289 682.33 185.199 685.334 182.326C690.391 177.49 695.142 174.696 697.186 173.512L697.22 173.509Z" fill="#FDC616"/>
<g clip-path="url(#clip2_1_3)">
<path d="M367.923 407C410.406 407 444.846 372.526 444.846 330C444.846 287.474 410.406 253 367.923 253C325.44 253 291 287.474 291 330C291 372.526 325.44 407 367.923 407Z" fill="white"/>
<path d="M391.007 304.291L376.433 306.612C376.433 306.612 368.967 320.869 365.375 327.615C363.668 330.829 359.833 331.989 356.737 330.281C353.578 328.533 352.584 324.759 354.329 321.494C358.164 314.302 361.922 307.071 365.77 299.891C366.496 298.527 368.98 295.237 373.299 293.91L393.937 288.682C396.422 288.006 398.868 288.019 401.365 288.146C403.187 288.248 405.008 288.325 406.843 288.401C411.913 288.592 415.965 292.52 415.99 297.596L415.812 331.199L437.227 336.988C440.043 337.715 441.737 339.45 442.501 342.242C444.412 349.205 451.572 374.787 451.572 374.787C452.502 378.319 450.668 382.184 447.445 383.714C443.89 385.397 438.195 383.586 436.845 379.595L428.73 351.348L401.161 348.848C391.53 347.943 387.771 340.151 388.23 334.795L390.995 304.278L391.007 304.291Z" fill="#FDC616"/>
<path d="M388.689 350.71C392.409 353.784 396.473 354.727 401.174 355.199L405.11 355.556C404.766 357.75 404.435 359.879 404.104 361.996C403.773 364.062 403.492 366.141 403.11 368.207C402.333 372.364 400.014 375.45 396.256 377.35C388.37 381.329 380.459 385.244 372.547 389.172C369.057 390.906 364.865 389.988 362.649 387.042C360.279 383.892 360.368 379.786 362.98 376.878C363.668 376.113 364.585 375.463 365.502 374.991C372.458 371.471 379.44 368.003 386.434 364.547C387.058 364.241 387.325 363.871 387.402 363.157C387.797 359.05 388.243 354.944 388.676 350.697L388.689 350.71Z" fill="#22A5DE"/>
<path d="M421.239 298.909L432.322 308.461L449.177 300.044C452.286 298.501 455.789 299.419 457.573 302.403C459.28 305.273 458.477 308.78 455.891 310.718L435.24 321.111C432.692 322.387 430.309 322.017 428.131 320.308C425.902 318.574 421.15 314.608 421.15 314.608L421.239 298.909Z" fill="#FDC616"/>
<path d="M407.212 281.757C414.938 281.757 421.201 275.488 421.201 267.755C421.201 260.021 414.938 253.752 407.212 253.752C399.487 253.752 393.224 260.021 393.224 267.755C393.224 275.488 399.487 281.757 407.212 281.757Z" fill="white"/>
<path d="M406.881 281.77C414.607 281.77 420.869 275.501 420.869 267.767C420.869 260.034 414.607 253.765 406.881 253.765C399.156 253.765 392.893 260.034 392.893 267.767C392.893 275.501 399.156 281.77 406.881 281.77Z" fill="#FDC616"/>
<path d="M401.174 348.861L428.743 351.361L436.858 379.608C438.208 383.599 443.916 385.41 447.457 383.727C450.68 382.196 452.515 378.332 451.585 374.8C451.585 374.8 444.425 349.218 442.514 342.255C441.75 339.462 440.055 337.728 437.24 337.001L427.914 334.476L393.288 345.915C394.829 347.331 397.288 348.504 401.174 348.874V348.861Z" fill="#22A5DE"/>
<path d="M434.501 348.887C436.569 348.887 438.246 347.208 438.246 345.137C438.246 343.067 436.569 341.388 434.501 341.388C432.432 341.388 430.755 343.067 430.755 345.137C430.755 347.208 432.432 348.887 434.501 348.887Z" fill="white"/>
<path d="M444.604 377.899C443.61 378.217 442.552 377.669 442.247 376.674L432.59 346.03L437.011 344.614L445.839 375.603C446.12 376.572 445.572 377.593 444.616 377.899H444.604Z" fill="white"/>
<path d="M522.647 325.639C523.756 325.639 524.304 326.213 524.304 327.284V335.114C524.304 336.172 523.756 336.759 522.647 336.759H512.163C502.226 336.759 496.442 329.311 496.442 319.262V270.356C496.442 269.298 496.99 268.711 498.098 268.711H506.468C507.576 268.711 508.124 269.285 508.124 270.356V318.688C508.124 323.228 510.417 325.651 513.182 325.651H522.66L522.647 325.639Z" fill="white"/>
<path d="M530.648 268.711H538.827C539.833 268.711 540.483 269.285 540.483 270.356V334.629C540.483 335.79 539.833 336.364 538.827 336.364H530.648C529.54 336.364 528.992 335.79 528.992 334.629V270.356C528.992 269.298 529.54 268.711 530.648 268.711Z" fill="white"/>
<path d="M600.997 286.016V334.629C600.997 335.79 600.347 336.364 599.341 336.364H591.162C590.156 336.364 589.595 335.79 589.595 334.629V285.149C589.595 281.183 588.028 278.964 585.085 278.964C582.321 278.964 580.664 281.183 580.664 285.149V334.629C580.664 335.79 580.117 336.364 579.008 336.364H570.919C569.912 336.364 569.352 335.79 569.352 334.629V285.149C569.352 281.183 567.606 278.964 564.842 278.964C562.077 278.964 560.434 281.183 560.434 285.149V334.629C560.434 335.79 559.886 336.364 558.777 336.364H550.688C549.579 336.364 549.032 335.79 549.032 334.629V286.016C549.032 274.896 555.287 267.551 564.854 267.551C569.173 267.551 572.396 269.285 574.97 271.797C577.632 269.285 580.856 267.551 585.085 267.551C594.742 267.551 600.997 274.896 600.997 286.016Z" fill="white"/>
<path d="M611.202 268.711H619.381C620.387 268.711 621.037 269.285 621.037 270.356V334.629C621.037 335.79 620.387 336.364 619.381 336.364H611.202C610.093 336.364 609.546 335.79 609.546 334.629V270.356C609.546 269.298 610.093 268.711 611.202 268.711Z" fill="white"/>
<path d="M658.199 270.356V278.186C658.199 279.245 657.651 279.831 656.543 279.831H647.803V334.629C647.803 335.79 647.255 336.364 646.236 336.364H637.955C636.949 336.364 636.388 335.79 636.388 334.629V279.831H627.56C626.553 279.831 625.993 279.258 625.993 278.186V270.356C625.993 269.298 626.54 268.711 627.56 268.711H656.53C657.638 268.711 658.186 269.285 658.186 270.356H658.199Z" fill="white"/>
<path d="M689.373 325.639C690.481 325.639 691.029 326.213 691.029 327.284V335.114C691.029 336.172 690.481 336.759 689.373 336.759H678.888C668.951 336.759 663.167 329.311 663.167 319.262V270.356C663.167 269.298 663.715 268.711 664.823 268.711H673.193C674.302 268.711 674.85 269.285 674.85 270.356V318.688C674.85 323.228 677.143 325.651 679.907 325.651H689.386L689.373 325.639Z" fill="white"/>
<path d="M692.685 318.586V286.399C692.685 275.674 699.31 268.329 709.234 268.329H718.891C719.897 268.329 720.547 268.902 720.547 269.974V277.702C720.547 278.862 719.897 279.436 718.891 279.436H710.61C706.661 279.436 704.266 282.331 704.266 286.782V296.831H716.585C717.694 296.831 718.241 297.506 718.241 298.565V305.91C718.241 307.071 717.694 307.645 716.585 307.645H704.266V318.28C704.266 322.731 706.661 325.626 710.61 325.626H718.891C719.897 325.626 720.547 326.2 720.547 327.271V335.101C720.547 336.159 719.897 336.746 718.891 336.746H709.234C699.297 336.746 692.685 329.401 692.685 318.574V318.586Z" fill="white"/>
<path d="M724.777 317.426C724.777 316.265 725.325 315.692 726.344 315.692H734.625C735.631 315.692 736.192 316.278 736.281 317.337C736.459 323.33 738.307 326.225 741.708 326.225C744.931 326.225 746.587 324.096 746.587 320.614C746.587 307.275 725.337 301.677 725.337 283.504C725.337 273.544 731.682 267.551 741.058 267.551C750.435 267.551 756.881 274.794 757.251 286.782C757.251 287.942 756.703 288.516 755.684 288.516H747.505C746.498 288.516 745.848 287.929 745.848 286.782C745.67 281.272 744.103 278.76 741.249 278.76C738.396 278.76 736.74 280.303 736.74 283.491C736.74 295.377 758.168 301.077 758.168 320.601C758.168 331.046 751.454 337.511 741.517 337.511C731.58 337.511 725.146 329.872 724.777 317.413V317.426Z" fill="white"/>
<path d="M762.576 317.426C762.576 316.265 763.124 315.692 764.143 315.692H772.424C773.43 315.692 773.991 316.278 774.08 317.337C774.258 323.33 776.105 326.225 779.507 326.225C782.73 326.225 784.386 324.096 784.386 320.614C784.386 307.275 763.136 301.677 763.136 283.504C763.136 273.544 769.481 267.551 778.857 267.551C788.234 267.551 794.68 274.794 795.049 286.782C795.049 287.942 794.502 288.516 793.483 288.516H785.304C784.297 288.516 783.647 287.929 783.647 286.782C783.469 281.272 781.902 278.76 779.048 278.76C776.195 278.76 774.538 280.303 774.538 283.491C774.538 295.377 795.967 301.077 795.967 320.601C795.967 331.046 789.253 337.511 779.316 337.511C769.379 337.511 762.945 329.872 762.576 317.413V317.426Z" fill="white"/>
<path d="M821.243 334.629V285.914C821.243 274.896 827.867 267.653 837.702 267.653C847.537 267.653 854.251 274.896 854.251 285.914V334.629C854.251 335.79 853.602 336.364 852.595 336.364H844.314C843.308 336.364 842.658 335.79 842.658 334.629V315.59H832.721V334.629C832.721 335.79 832.173 336.364 831.154 336.364H822.873C821.765 336.364 821.217 335.79 821.217 334.629H821.243ZM842.671 304.482V285.06C842.671 281.285 840.836 278.977 837.702 278.977C834.568 278.977 832.734 281.298 832.734 285.06V304.482H842.671Z" fill="white"/>
<path d="M895.273 314.429V318.484C895.273 329.605 888.649 336.746 878.903 336.746H867.22C864.456 336.746 862.341 334.616 862.341 331.62V285.634C862.341 274.807 868.775 267.653 878.164 267.653C887.553 267.653 894.165 274.807 894.165 285.634V289.498C894.254 294.522 892.42 298.68 889.286 301.383C893.057 304.38 895.261 308.92 895.261 314.429H895.273ZM873.845 296.843H878.253C881.018 296.843 882.674 294.624 882.674 290.85V284.563C882.674 281.081 880.928 278.862 878.075 278.862C875.412 278.862 873.845 281.081 873.845 284.563V296.843ZM883.591 314.047C883.591 309.991 881.756 307.568 878.623 307.568H873.845V325.741H878.623C881.744 325.741 883.591 323.42 883.591 319.454V314.047Z" fill="white"/>
<path d="M903.541 268.711H911.72C912.727 268.711 913.377 269.285 913.377 270.356V334.629C913.377 335.79 912.727 336.364 911.72 336.364H903.541C902.433 336.364 901.885 335.79 901.885 334.629V270.356C901.885 269.298 902.433 268.711 903.541 268.711Z" fill="white"/>
<path d="M947.417 325.639C948.526 325.639 949.073 326.213 949.073 327.284V335.114C949.073 336.172 948.526 336.759 947.417 336.759H936.932C926.995 336.759 921.212 329.311 921.212 319.262V270.356C921.212 269.298 921.759 268.711 922.868 268.711H931.238C932.346 268.711 932.894 269.285 932.894 270.356V318.688C932.894 323.228 935.187 325.651 937.952 325.651H947.43L947.417 325.639Z" fill="white"/>
<path d="M955.418 268.711H963.597C964.603 268.711 965.253 269.285 965.253 270.356V334.629C965.253 335.79 964.603 336.364 963.597 336.364H955.418C954.31 336.364 953.762 335.79 953.762 334.629V270.356C953.762 269.298 954.31 268.711 955.418 268.711Z" fill="white"/>
<path d="M1002.4 270.356V278.186C1002.4 279.245 1001.85 279.831 1000.75 279.831H992.007V334.629C992.007 335.79 991.459 336.364 990.44 336.364H982.159C981.152 336.364 980.592 335.79 980.592 334.629V279.831H971.763C970.757 279.831 970.196 279.258 970.196 278.186V270.356C970.196 269.298 970.744 268.711 971.763 268.711H1000.73C1001.84 268.711 1002.39 269.285 1002.39 270.356H1002.4Z" fill="white"/>
<path d="M1009.4 268.711H1017.58C1018.58 268.711 1019.23 269.285 1019.23 270.356V334.629C1019.23 335.79 1018.58 336.364 1017.58 336.364H1009.4C1008.29 336.364 1007.74 335.79 1007.74 334.629V270.356C1007.74 269.298 1008.29 268.711 1009.4 268.711Z" fill="white"/>
<path d="M1027.14 318.586V286.399C1027.14 275.674 1033.77 268.329 1043.69 268.329H1053.35C1054.36 268.329 1055 268.902 1055 269.974V277.702C1055 278.862 1054.36 279.436 1053.35 279.436H1045.07C1041.12 279.436 1038.72 282.331 1038.72 286.782V296.831H1051.04C1052.15 296.831 1052.7 297.506 1052.7 298.565V305.91C1052.7 307.071 1052.15 307.645 1051.04 307.645H1038.72V318.28C1038.72 322.731 1041.12 325.626 1045.07 325.626H1053.35C1054.36 325.626 1055 326.2 1055 327.271V335.101C1055 336.159 1054.36 336.746 1053.35 336.746H1043.69C1033.75 336.746 1027.14 329.401 1027.14 318.574V318.586Z" fill="white"/>
<path d="M1059.23 317.426C1059.23 316.265 1059.78 315.692 1060.8 315.692H1069.08C1070.09 315.692 1070.65 316.278 1070.74 317.337C1070.92 323.33 1072.76 326.225 1076.17 326.225C1079.39 326.225 1081.04 324.096 1081.04 320.614C1081.04 307.275 1059.79 301.677 1059.79 283.504C1059.79 273.544 1066.14 267.551 1075.52 267.551C1084.89 267.551 1091.34 274.794 1091.71 286.782C1091.71 287.942 1091.16 288.516 1090.14 288.516H1081.96C1080.96 288.516 1080.31 287.929 1080.31 286.782C1080.13 281.272 1078.56 278.76 1075.71 278.76C1072.85 278.76 1071.2 280.303 1071.2 283.491C1071.2 295.377 1092.63 301.077 1092.63 320.601C1092.63 331.046 1085.91 337.511 1075.97 337.511C1066.04 337.511 1059.6 329.872 1059.23 317.413V317.426Z" fill="white"/>
<path d="M496.187 385.117V361.295C496.187 356.334 499.219 353.031 503.754 353.031C508.29 353.031 511.322 356.334 511.322 361.295V385.117C511.322 385.397 511.143 385.576 510.863 385.576H509.029C508.748 385.576 508.57 385.397 508.57 385.117V373.92H498.939V385.117C498.939 385.397 498.76 385.576 498.48 385.576H496.646C496.365 385.576 496.187 385.397 496.187 385.117ZM508.57 371.344V361.295C508.57 357.711 506.825 355.607 503.754 355.607C500.684 355.607 498.939 357.724 498.939 361.295V371.344H508.57Z" fill="white"/>
<path d="M540.305 369.38V385.129C540.305 385.41 540.126 385.588 539.846 385.588H538.152C537.871 385.588 537.693 385.41 537.693 385.129V369.38C537.693 366.625 536.266 364.7 533.744 364.7C531.221 364.7 529.794 366.625 529.794 369.38V385.129C529.794 385.41 529.616 385.588 529.336 385.588H527.641C527.361 385.588 527.183 385.41 527.183 385.129V369.38C527.183 366.625 525.756 364.7 523.233 364.7C520.711 364.7 519.284 366.625 519.284 369.38V385.129C519.284 385.41 519.106 385.588 518.826 385.588H517.131C516.851 385.588 516.672 385.41 516.672 385.129V369.38C516.672 365.248 519.246 362.175 523.233 362.175C525.616 362.175 527.501 363.603 528.508 365.618C529.476 363.603 531.349 362.175 533.731 362.175C537.719 362.175 540.292 365.248 540.292 369.38H540.305Z" fill="white"/>
<path d="M559.389 369.38V378.842C559.389 382.974 556.586 386.048 552.79 386.048C550.586 386.048 549.07 385.129 547.974 383.752V394.311C547.974 394.592 547.796 394.77 547.516 394.77H545.821C545.541 394.77 545.362 394.592 545.362 394.311V369.38C545.362 365.248 548.165 362.175 552.382 362.175C556.599 362.175 559.402 365.248 559.402 369.38H559.389ZM556.765 369.38C556.765 366.625 555.108 364.7 552.357 364.7C549.605 364.7 547.949 366.625 547.949 369.38V378.842C547.949 381.597 549.605 383.523 552.357 383.523C555.108 383.523 556.765 381.597 556.765 378.842V369.38Z" fill="white"/>
<path d="M565.67 362.634C565.95 362.634 566.128 362.812 566.128 363.093V378.842C566.128 381.648 567.734 383.574 570.345 383.574C572.957 383.574 574.562 381.648 574.562 378.842V363.093C574.562 362.812 574.74 362.634 575.021 362.634H576.715C576.995 362.634 577.174 362.812 577.174 363.093V378.842C577.174 382.974 574.422 386.048 570.345 386.048C566.269 386.048 563.517 382.974 563.517 378.842V363.093C563.517 362.812 563.695 362.634 563.975 362.634H565.67Z" fill="white"/>
<path d="M591.213 383.599V385.206C591.213 385.486 591.035 385.665 590.754 385.665H590.156C586.079 385.665 583.684 382.821 583.684 377.95V365.095H580.843C580.563 365.095 580.384 364.917 580.384 364.636V363.08C580.384 362.8 580.563 362.621 580.843 362.621H583.684V356.653C583.684 356.372 583.862 356.194 584.142 356.194H585.837C586.117 356.194 586.295 356.372 586.295 356.653V362.621H590.194C590.474 362.621 590.652 362.8 590.652 363.08V364.636C590.652 364.917 590.474 365.095 590.194 365.095H586.295V377.95C586.295 381.342 587.62 383.14 590.143 383.14H590.742C591.06 383.14 591.2 383.319 591.2 383.599H591.213Z" fill="white"/>
<path d="M593.735 378.881C593.735 375.259 596.538 372.275 600.704 372.275H605.15V369.291C605.15 366.625 603.545 364.7 600.844 364.7C598.411 364.7 596.895 366.396 596.717 368.921C596.666 369.24 596.538 369.38 596.258 369.38H594.564C594.283 369.38 594.105 369.201 594.105 368.921C594.334 365.019 596.908 362.175 600.844 362.175C605.061 362.175 607.775 365.248 607.775 369.291V378.881C607.775 382.961 605.023 385.997 600.806 385.997C596.589 385.997 593.748 382.961 593.748 378.881H593.735ZM605.15 378.881V374.8H600.704C598.003 374.8 596.347 376.636 596.347 378.881C596.347 381.584 598.003 383.472 600.793 383.472C603.583 383.472 605.15 381.584 605.15 378.881Z" fill="white"/>
<path d="M621.343 383.599V385.206C621.343 385.486 621.164 385.665 620.884 385.665H620.285C616.208 385.665 613.813 382.821 613.813 377.95V365.095H610.972C610.692 365.095 610.514 364.917 610.514 364.636V363.08C610.514 362.8 610.692 362.621 610.972 362.621H613.813V356.653C613.813 356.372 613.992 356.194 614.272 356.194H615.966C616.247 356.194 616.425 356.372 616.425 356.653V362.621H620.323C620.604 362.621 620.782 362.8 620.782 363.08V364.636C620.782 364.917 620.604 365.095 620.323 365.095H616.425V377.95C616.425 381.342 617.75 383.14 620.272 383.14H620.871C621.19 383.14 621.33 383.319 621.33 383.599H621.343Z" fill="white"/>
<path d="M624.871 357.852C624.871 356.793 625.61 356.066 626.655 356.066C627.7 356.066 628.439 356.806 628.439 357.852C628.439 358.821 627.661 359.637 626.655 359.637C625.649 359.637 624.871 358.859 624.871 357.852ZM625.381 385.117V363.08C625.381 362.8 625.559 362.621 625.84 362.621H627.534C627.814 362.621 627.993 362.8 627.993 363.08V385.117C627.993 385.397 627.814 385.576 627.534 385.576H625.84C625.559 385.576 625.381 385.397 625.381 385.117Z" fill="white"/>
<path d="M632.668 378.83V369.367C632.668 365.235 635.471 362.162 639.726 362.162C643.981 362.162 646.784 365.235 646.784 369.367V378.83C646.784 382.961 643.981 386.035 639.726 386.035C635.471 386.035 632.668 382.961 632.668 378.83ZM644.134 378.83V369.367C644.134 366.562 642.478 364.636 639.726 364.636C636.974 364.636 635.318 366.562 635.318 369.367V378.83C635.318 381.635 636.974 383.561 639.726 383.561C642.478 383.561 644.134 381.635 644.134 378.83Z" fill="white"/>
<path d="M651.383 385.117V369.367C651.383 365.235 654.135 362.162 658.211 362.162C662.288 362.162 665.04 365.235 665.04 369.367V385.117C665.04 385.397 664.862 385.576 664.581 385.576H662.887C662.607 385.576 662.428 385.397 662.428 385.117V369.367C662.428 366.562 660.823 364.636 658.211 364.636C655.6 364.636 653.995 366.562 653.995 369.367V385.117C653.995 385.397 653.816 385.576 653.536 385.576H651.842C651.561 385.576 651.383 385.397 651.383 385.117Z" fill="white"/>
<path d="M667.805 383.931C667.805 382.732 668.722 381.814 669.919 381.814C671.117 381.814 672.034 382.732 672.034 383.931C672.034 385.129 671.066 386.048 669.919 386.048C668.773 386.048 667.805 385.078 667.805 383.931Z" fill="white"/>
<path d="M686.01 385.117V361.244C686.01 356.423 689.08 352.98 693.526 352.98C697.972 352.98 701.043 356.423 701.043 361.244V364.636C701.043 368.449 699.068 371.114 696.405 372.211L701.68 385.015C701.82 385.333 701.629 385.563 701.31 385.563H699.297C699.068 385.563 698.89 385.474 698.788 385.193L693.832 372.759H688.736V385.104C688.736 385.384 688.558 385.563 688.277 385.563H686.443C686.163 385.563 685.984 385.384 685.984 385.104L686.01 385.117ZM693.488 370.196C696.38 370.196 698.304 367.901 698.304 364.636V361.244C698.304 357.852 696.38 355.556 693.539 355.556C690.698 355.556 688.774 357.852 688.774 361.244V370.196H693.501H693.488Z" fill="white"/>
<path d="M704.444 378.791V369.469C704.444 365.248 707.145 362.213 711.464 362.213C715.783 362.213 718.483 365.248 718.483 369.278C718.483 373.091 715.681 375.986 711.464 375.986H707.056V378.791C707.056 381.546 708.712 383.472 711.464 383.472C714.037 383.472 715.732 381.584 715.821 378.791C715.821 378.473 715.999 378.332 716.279 378.332H717.974C718.254 378.332 718.432 378.511 718.432 378.791C718.292 383.102 715.502 385.997 711.464 385.997C707.425 385.997 704.444 383.102 704.444 378.791ZM711.464 373.461C714.216 373.461 715.872 371.714 715.872 369.278C715.872 366.613 714.216 364.738 711.464 364.738C708.712 364.738 707.056 366.625 707.056 369.469V373.461H711.464Z" fill="white"/>
<path d="M723.21 385.117V353.898C723.21 353.618 723.388 353.439 723.668 353.439H725.363C725.643 353.439 725.821 353.618 725.821 353.898V364.368C726.828 363.042 728.344 362.162 730.357 362.162C734.535 362.162 737.147 365.235 737.147 369.507V385.117C737.147 385.397 736.969 385.576 736.689 385.576H734.994C734.714 385.576 734.535 385.397 734.535 385.117V369.507C734.535 366.613 732.93 364.687 730.128 364.687C727.554 364.687 725.821 366.613 725.821 369.507V385.117C725.821 385.397 725.643 385.576 725.363 385.576H723.668C723.388 385.576 723.21 385.397 723.21 385.117Z" fill="white"/>
<path d="M741.415 378.881C741.415 375.259 744.218 372.275 748.384 372.275H752.83V369.291C752.83 366.625 751.225 364.7 748.524 364.7C746.09 364.7 744.574 366.396 744.396 368.921C744.345 369.24 744.218 369.38 743.937 369.38H742.243C741.963 369.38 741.784 369.201 741.784 368.921C742.014 365.019 744.587 362.175 748.524 362.175C752.741 362.175 755.454 365.248 755.454 369.291V378.881C755.454 382.961 752.702 385.997 748.486 385.997C744.269 385.997 741.428 382.961 741.428 378.881H741.415ZM752.83 378.881V374.8H748.384C745.683 374.8 744.027 376.636 744.027 378.881C744.027 381.584 745.683 383.472 748.473 383.472C751.263 383.472 752.83 381.584 752.83 378.881Z" fill="white"/>
<path d="M773.608 369.38V378.842C773.608 382.974 770.806 386.048 766.589 386.048C762.372 386.048 759.569 382.974 759.569 378.842V353.911C759.569 353.631 759.748 353.452 760.028 353.452H761.722C762.003 353.452 762.181 353.631 762.181 353.911V364.47C763.277 363.093 764.793 362.175 766.589 362.175C770.806 362.175 773.608 365.248 773.608 369.38ZM770.997 369.38C770.997 366.625 769.341 364.7 766.589 364.7C763.837 364.7 762.181 366.625 762.181 369.38V378.842C762.181 381.597 763.837 383.523 766.589 383.523C769.341 383.523 770.997 381.597 770.997 378.842V369.38Z" fill="white"/>
<path d="M778.157 357.852C778.157 356.793 778.895 356.066 779.94 356.066C780.985 356.066 781.724 356.806 781.724 357.852C781.724 358.821 780.947 359.637 779.94 359.637C778.934 359.637 778.157 358.859 778.157 357.852ZM778.653 385.117V363.08C778.653 362.8 778.832 362.621 779.112 362.621H780.806C781.087 362.621 781.265 362.8 781.265 363.08V385.117C781.265 385.397 781.087 385.576 780.806 385.576H779.112C778.832 385.576 778.653 385.397 778.653 385.117Z" fill="white"/>
<path d="M787.138 385.117V353.898C787.138 353.618 787.316 353.439 787.597 353.439H789.291C789.571 353.439 789.75 353.618 789.75 353.898V385.117C789.75 385.397 789.571 385.576 789.291 385.576H787.597C787.316 385.576 787.138 385.397 787.138 385.117Z" fill="white"/>
<path d="M795.126 357.852C795.126 356.793 795.865 356.066 796.91 356.066C797.954 356.066 798.693 356.806 798.693 357.852C798.693 358.821 797.916 359.637 796.91 359.637C795.903 359.637 795.126 358.859 795.126 357.852ZM795.623 385.117V363.08C795.623 362.8 795.801 362.621 796.081 362.621H797.776C798.056 362.621 798.234 362.8 798.234 363.08V385.117C798.234 385.397 798.056 385.576 797.776 385.576H796.081C795.801 385.576 795.623 385.397 795.623 385.117Z" fill="white"/>
<path d="M812.732 383.599V385.206C812.732 385.486 812.554 385.665 812.274 385.665H811.675C807.598 385.665 805.203 382.821 805.203 377.95V365.095H802.362C802.082 365.095 801.903 364.917 801.903 364.636V363.08C801.903 362.8 802.082 362.621 802.362 362.621H805.203V356.653C805.203 356.372 805.381 356.194 805.662 356.194H807.356C807.636 356.194 807.815 356.372 807.815 356.653V362.621H811.713C811.993 362.621 812.172 362.8 812.172 363.08V364.636C812.172 364.917 811.993 365.095 811.713 365.095H807.815V377.95C807.815 381.342 809.14 383.14 811.662 383.14H812.261C812.579 383.14 812.72 383.319 812.72 383.599H812.732Z" fill="white"/>
<path d="M815.255 378.881C815.255 375.259 818.058 372.275 822.223 372.275H826.67V369.291C826.67 366.625 825.064 364.7 822.364 364.7C819.93 364.7 818.414 366.396 818.236 368.921C818.185 369.24 818.058 369.38 817.777 369.38H816.083C815.803 369.38 815.624 369.201 815.624 368.921C815.854 365.019 818.427 362.175 822.364 362.175C826.58 362.175 829.294 365.248 829.294 369.291V378.881C829.294 382.961 826.542 385.997 822.325 385.997C818.109 385.997 815.268 382.961 815.268 378.881H815.255ZM826.67 378.881V374.8H822.223C819.523 374.8 817.866 376.636 817.866 378.881C817.866 381.584 819.523 383.472 822.313 383.472C825.103 383.472 826.67 381.584 826.67 378.881Z" fill="white"/>
<path d="M842.862 383.599V385.206C842.862 385.486 842.684 385.665 842.403 385.665H841.805C837.728 385.665 835.333 382.821 835.333 377.95V365.095H832.492C832.211 365.095 832.033 364.917 832.033 364.636V363.08C832.033 362.8 832.211 362.621 832.492 362.621H835.333V356.653C835.333 356.372 835.511 356.194 835.791 356.194H837.486C837.766 356.194 837.944 356.372 837.944 356.653V362.621H841.843C842.123 362.621 842.301 362.8 842.301 363.08V364.636C842.301 364.917 842.123 365.095 841.843 365.095H837.944V377.95C837.944 381.342 839.269 383.14 841.792 383.14H842.391C842.709 383.14 842.849 383.319 842.849 383.599H842.862Z" fill="white"/>
<path d="M846.391 357.852C846.391 356.793 847.13 356.066 848.174 356.066C849.219 356.066 849.958 356.806 849.958 357.852C849.958 358.821 849.181 359.637 848.174 359.637C847.168 359.637 846.391 358.859 846.391 357.852ZM846.9 385.117V363.08C846.9 362.8 847.079 362.621 847.359 362.621H849.053C849.334 362.621 849.512 362.8 849.512 363.08V385.117C849.512 385.397 849.334 385.576 849.053 385.576H847.359C847.079 385.576 846.9 385.397 846.9 385.117Z" fill="white"/>
<path d="M854.188 378.83V369.367C854.188 365.235 856.99 362.162 861.245 362.162C865.5 362.162 868.303 365.235 868.303 369.367V378.83C868.303 382.961 865.5 386.035 861.245 386.035C856.99 386.035 854.188 382.961 854.188 378.83ZM865.653 378.83V369.367C865.653 366.562 863.997 364.636 861.245 364.636C858.494 364.636 856.837 366.562 856.837 369.367V378.83C856.837 381.635 858.494 383.561 861.245 383.561C863.997 383.561 865.653 381.635 865.653 378.83Z" fill="white"/>
<path d="M872.902 385.117V369.367C872.902 365.235 875.654 362.162 879.731 362.162C883.808 362.162 886.559 365.235 886.559 369.367V385.117C886.559 385.397 886.381 385.576 886.101 385.576H884.406C884.126 385.576 883.948 385.397 883.948 385.117V369.367C883.948 366.562 882.342 364.636 879.731 364.636C877.119 364.636 875.514 366.562 875.514 369.367V385.117C875.514 385.397 875.336 385.576 875.055 385.576H873.361C873.081 385.576 872.902 385.397 872.902 385.117Z" fill="white"/>
<path d="M889.324 383.931C889.324 382.732 890.241 381.814 891.439 381.814C892.636 381.814 893.553 382.732 893.553 383.931C893.553 385.129 892.585 386.048 891.439 386.048C890.292 386.048 889.324 385.078 889.324 383.931Z" fill="white"/>
<path d="M906.331 377.312C906.331 377.031 906.51 376.853 906.79 376.853H908.625C908.905 376.853 909.083 377.031 909.083 377.312C909.223 381.355 910.918 383.459 914.039 383.459C917.16 383.459 918.906 381.801 918.906 378.638C918.906 370.795 906.574 369.048 906.574 360.096C906.574 355.824 909.504 352.98 913.963 352.98C918.141 352.98 921.02 356.372 921.25 361.473C921.25 361.754 921.071 361.932 920.791 361.932H918.957C918.676 361.932 918.498 361.754 918.498 361.473C918.32 357.431 916.714 355.556 913.963 355.556C910.931 355.556 909.325 357.112 909.325 360.096C909.325 367.493 921.657 369.189 921.657 378.638C921.657 383.089 918.625 386.035 914.039 386.035C909.453 386.035 906.472 382.541 906.331 377.312Z" fill="white"/>
<path d="M924.995 378.83V369.367C924.995 365.235 927.798 362.162 932.053 362.162C936.308 362.162 939.111 365.235 939.111 369.367V378.83C939.111 382.961 936.308 386.035 932.053 386.035C927.798 386.035 924.995 382.961 924.995 378.83ZM936.461 378.83V369.367C936.461 366.562 934.805 364.636 932.053 364.636C929.301 364.636 927.645 366.562 927.645 369.367V378.83C927.645 381.635 929.301 383.561 932.053 383.561C934.805 383.561 936.461 381.635 936.461 378.83Z" fill="white"/>
<path d="M943.251 378.83V369.367C943.251 365.235 946.003 362.162 950.131 362.162C954.259 362.162 956.781 365.006 957.01 368.908C957.01 369.189 956.832 369.367 956.552 369.367H954.857C954.577 369.367 954.399 369.227 954.399 368.908C954.22 366.383 952.653 364.687 950.131 364.687C947.468 364.687 945.863 366.613 945.863 369.367V378.83C945.863 381.584 947.519 383.51 950.22 383.51C952.921 383.51 954.399 381.622 954.577 378.83C954.577 378.511 954.755 378.37 955.036 378.37H956.73C957.01 378.37 957.189 378.549 957.189 378.83C956.959 383.012 954.259 386.035 950.22 386.035C946.181 386.035 943.251 382.961 943.251 378.83Z" fill="white"/>
<path d="M960.31 357.852C960.31 356.793 961.049 356.066 962.094 356.066C963.138 356.066 963.877 356.806 963.877 357.852C963.877 358.821 963.1 359.637 962.094 359.637C961.087 359.637 960.31 358.859 960.31 357.852ZM960.82 385.117V363.08C960.82 362.8 960.998 362.621 961.278 362.621H962.973C963.253 362.621 963.431 362.8 963.431 363.08V385.117C963.431 385.397 963.253 385.576 962.973 385.576H961.278C960.998 385.576 960.82 385.397 960.82 385.117Z" fill="white"/>
<path d="M968.068 378.881C968.068 375.259 970.871 372.275 975.037 372.275H979.483V369.291C979.483 366.625 977.878 364.7 975.177 364.7C972.744 364.7 971.228 366.396 971.05 368.921C970.999 369.24 970.871 369.38 970.591 369.38H968.897C968.616 369.38 968.438 369.201 968.438 368.921C968.667 365.019 971.241 362.175 975.177 362.175C979.394 362.175 982.108 365.248 982.108 369.291V378.881C982.108 382.961 979.356 385.997 975.139 385.997C970.922 385.997 968.081 382.961 968.081 378.881H968.068ZM979.483 378.881V374.8H975.037C972.336 374.8 970.68 376.636 970.68 378.881C970.68 381.584 972.336 383.472 975.126 383.472C977.916 383.472 979.483 381.584 979.483 378.881Z" fill="white"/>
<path d="M987.14 385.117V353.898C987.14 353.618 987.318 353.439 987.599 353.439H989.293C989.573 353.439 989.752 353.618 989.752 353.898V385.117C989.752 385.397 989.573 385.576 989.293 385.576H987.599C987.318 385.576 987.14 385.397 987.14 385.117Z" fill="white"/>
<path d="M1006.86 353.452H1008.7C1008.98 353.452 1009.15 353.631 1009.15 353.911V385.129C1009.15 385.41 1008.98 385.588 1008.7 385.588H1006.86C1006.58 385.588 1006.4 385.41 1006.4 385.129V353.911C1006.4 353.631 1006.58 353.452 1006.86 353.452Z" fill="white"/>
<path d="M1014.89 385.117V369.367C1014.89 365.235 1017.64 362.162 1021.72 362.162C1025.79 362.162 1028.54 365.235 1028.54 369.367V385.117C1028.54 385.397 1028.37 385.576 1028.09 385.576H1026.39C1026.11 385.576 1025.93 385.397 1025.93 385.117V369.367C1025.93 366.562 1024.33 364.636 1021.72 364.636C1019.1 364.636 1017.5 366.562 1017.5 369.367V385.117C1017.5 385.397 1017.32 385.576 1017.04 385.576H1015.35C1015.07 385.576 1014.89 385.397 1014.89 385.117Z" fill="white"/>
<path d="M1042.09 383.599V385.206C1042.09 385.486 1041.91 385.665 1041.63 385.665H1041.03C1036.95 385.665 1034.56 382.821 1034.56 377.95V365.095H1031.72C1031.44 365.095 1031.26 364.917 1031.26 364.636V363.08C1031.26 362.8 1031.44 362.621 1031.72 362.621H1034.56V356.653C1034.56 356.372 1034.74 356.194 1035.02 356.194H1036.71C1036.99 356.194 1037.17 356.372 1037.17 356.653V362.621H1041.07C1041.35 362.621 1041.53 362.8 1041.53 363.08V364.636C1041.53 364.917 1041.35 365.095 1041.07 365.095H1037.17V377.95C1037.17 381.342 1038.49 383.14 1041.02 383.14H1041.62C1041.93 383.14 1042.07 383.319 1042.07 383.599H1042.09Z" fill="white"/>
<path d="M1045.12 378.791V369.469C1045.12 365.248 1047.82 362.213 1052.14 362.213C1056.46 362.213 1059.16 365.248 1059.16 369.278C1059.16 373.091 1056.36 375.986 1052.14 375.986H1047.73V378.791C1047.73 381.546 1049.39 383.472 1052.14 383.472C1054.71 383.472 1056.41 381.584 1056.5 378.791C1056.5 378.473 1056.67 378.332 1056.95 378.332H1058.65C1058.93 378.332 1059.11 378.511 1059.11 378.791C1058.97 383.102 1056.18 385.997 1052.14 385.997C1048.1 385.997 1045.12 383.102 1045.12 378.791ZM1052.13 373.461C1054.88 373.461 1056.53 371.714 1056.53 369.278C1056.53 366.613 1054.88 364.738 1052.13 364.738C1049.37 364.738 1047.72 366.625 1047.72 369.469V373.461H1052.13Z" fill="white"/>
<path d="M1076.99 369.38V388.011C1076.99 392.322 1074.19 395.217 1069.97 395.217C1065.76 395.217 1063.09 392.322 1062.95 388.011C1062.95 387.731 1063.13 387.552 1063.41 387.552H1065.11C1065.39 387.552 1065.57 387.693 1065.57 388.011C1065.71 390.945 1067.35 392.692 1069.97 392.692C1072.73 392.692 1074.38 390.945 1074.38 388.011V382.821C1073.29 384.198 1071.77 385.117 1069.97 385.117C1065.76 385.117 1062.95 382.043 1062.95 377.911V369.367C1062.95 365.235 1065.76 362.162 1069.97 362.162C1074.19 362.162 1076.99 365.235 1076.99 369.367V369.38ZM1074.37 377.911V369.367C1074.37 366.613 1072.71 364.687 1069.96 364.687C1067.21 364.687 1065.55 366.613 1065.55 369.367V377.911C1065.55 380.666 1067.21 382.592 1069.96 382.592C1072.71 382.592 1074.37 380.666 1074.37 377.911Z" fill="white"/>
<path d="M1082.04 385.117V369.558C1082.04 365.337 1085.11 362.494 1089.24 362.494H1091.25C1091.53 362.494 1091.71 362.672 1091.71 362.953V364.559C1091.71 364.84 1091.53 365.019 1091.25 365.019H1089.24C1086.54 365.019 1084.65 366.715 1084.65 369.558V385.117C1084.65 385.397 1084.47 385.576 1084.19 385.576H1082.5C1082.22 385.576 1082.04 385.397 1082.04 385.117Z" fill="white"/>
<path d="M1093.68 378.881C1093.68 375.259 1096.49 372.275 1100.65 372.275H1105.1V369.291C1105.1 366.625 1103.49 364.7 1100.79 364.7C1098.36 364.7 1096.84 366.396 1096.66 368.921C1096.61 369.24 1096.49 369.38 1096.21 369.38H1094.51C1094.23 369.38 1094.05 369.201 1094.05 368.921C1094.28 365.019 1096.85 362.175 1100.79 362.175C1105.01 362.175 1107.72 365.248 1107.72 369.291V378.881C1107.72 382.961 1104.97 385.997 1100.75 385.997C1096.54 385.997 1093.7 382.961 1093.7 378.881H1093.68ZM1105.1 378.881V374.8H1100.65C1097.95 374.8 1096.29 376.636 1096.29 378.881C1096.29 381.584 1097.95 383.472 1100.74 383.472C1103.53 383.472 1105.1 381.584 1105.1 378.881Z" fill="white"/>
<path d="M1121.29 383.599V385.206C1121.29 385.486 1121.11 385.665 1120.83 385.665H1120.23C1116.16 385.665 1113.76 382.821 1113.76 377.95V365.095H1110.92C1110.64 365.095 1110.46 364.917 1110.46 364.636V363.08C1110.46 362.8 1110.64 362.621 1110.92 362.621H1113.76V356.653C1113.76 356.372 1113.94 356.194 1114.22 356.194H1115.91C1116.19 356.194 1116.37 356.372 1116.37 356.653V362.621H1120.27C1120.55 362.621 1120.73 362.8 1120.73 363.08V364.636C1120.73 364.917 1120.55 365.095 1120.27 365.095H1116.37V377.95C1116.37 381.342 1117.7 383.14 1120.22 383.14H1120.82C1121.14 383.14 1121.28 383.319 1121.28 383.599H1121.29Z" fill="white"/>
<path d="M1124.82 357.852C1124.82 356.793 1125.56 356.066 1126.6 356.066C1127.65 356.066 1128.39 356.806 1128.39 357.852C1128.39 358.821 1127.61 359.637 1126.6 359.637C1125.6 359.637 1124.82 358.859 1124.82 357.852ZM1125.33 385.117V363.08C1125.33 362.8 1125.51 362.621 1125.79 362.621H1127.48C1127.76 362.621 1127.94 362.8 1127.94 363.08V385.117C1127.94 385.397 1127.76 385.576 1127.48 385.576H1125.79C1125.51 385.576 1125.33 385.397 1125.33 385.117Z" fill="white"/>
<path d="M1132.62 378.83V369.367C1132.62 365.235 1135.42 362.162 1139.67 362.162C1143.93 362.162 1146.73 365.235 1146.73 369.367V378.83C1146.73 382.961 1143.93 386.035 1139.67 386.035C1135.42 386.035 1132.62 382.961 1132.62 378.83ZM1144.08 378.83V369.367C1144.08 366.562 1142.43 364.636 1139.67 364.636C1136.92 364.636 1135.27 366.562 1135.27 369.367V378.83C1135.27 381.635 1136.92 383.561 1139.67 383.561C1142.43 383.561 1144.08 381.635 1144.08 378.83Z" fill="white"/>
<path d="M1151.33 385.117V369.367C1151.33 365.235 1154.08 362.162 1158.16 362.162C1162.24 362.162 1164.99 365.235 1164.99 369.367V385.117C1164.99 385.397 1164.81 385.576 1164.53 385.576H1162.83C1162.55 385.576 1162.38 385.397 1162.38 385.117V369.367C1162.38 366.562 1160.77 364.636 1158.16 364.636C1155.55 364.636 1153.94 366.562 1153.94 369.367V385.117C1153.94 385.397 1153.76 385.576 1153.48 385.576H1151.79C1151.51 385.576 1151.33 385.397 1151.33 385.117Z" fill="white"/>
</g>
<path d="M1010.58 728.038C1010.58 728.038 1016.05 721.919 1036.31 703.931C1060.38 682.567 1054.01 689.354 1086.35 664.657C1097.32 656.287 1109.69 647.418 1126.1 638.449C1129.94 636.351 1140.87 630.58 1156.09 627.313C1166.91 624.991 1172.88 625.446 1174.98 625.651C1184.69 626.603 1191.63 630.181 1195.7 632.324C1204.84 637.141 1210.33 642.925 1213.1 645.898C1217.83 650.984 1220.52 655.429 1221.17 656.519C1221.97 657.85 1225.78 664.411 1227.88 673.511C1228.62 676.75 1229.2 679.311 1229.27 682.92C1229.35 687.03 1228.67 688.236 1229.4 688.833C1232.64 691.494 1253.27 673.919 1256.71 670.973C1272.55 657.396 1278.49 653.266 1291.73 642.02C1307.57 628.578 1304.69 628.935 1333.33 604.165C1342.61 596.151 1350.3 589.191 1363.43 582.637C1368.61 580.047 1374.13 577.124 1381.63 575.373C1383.81 574.863 1391 573.299 1400.52 573.711C1410.34 574.136 1417.75 576.454 1420.97 577.573C1433.74 582.03 1441.71 589.029 1444.42 591.554C1451.04 597.74 1454.93 604.07 1457.12 608.369C1461.73 617.423 1462.87 625.445 1463.23 629.538C1464.4 643.02 1457.62 650.226 1460.48 652.434C1463.91 655.071 1475.08 646.651 1485.31 639.866C1497.17 632.005 1509.82 626.035 1534.88 613.796C1549.7 606.56 1561.13 602.177 1584.01 593.427C1597.46 588.277 1613.67 582.822 1646.07 571.92C1672.95 562.874 1686.35 558.572 1705.7 556.288C1721.09 554.472 1729.32 555.221 1736.9 557.317C1755.47 562.459 1766.09 574.6 1769.05 578.09C1780.11 591.099 1782.51 604.488 1783.11 608.632C1785.32 623.885 1780.77 635.49 1778.34 641.461C1775.44 648.604 1770.67 660.316 1757.99 668.742C1751.75 672.882 1746.1 674.566 1741.64 675.842C1708.02 685.458 1691.22 690.265 1687.97 690.949C1675.81 693.509 1658.19 699.758 1622.84 711.786C1594.53 721.422 1580.36 726.244 1567.65 731.749C1562.34 734.056 1554.37 737.64 1504.81 765.596C1457.2 792.457 1445.35 799.974 1431.96 809.768C1421.87 817.146 1412.28 825.132 1402.71 833.11C1397.73 837.258 1394.62 839.953 1389.23 842.793C1376.2 849.656 1364.05 849.913 1361.72 849.936C1355.74 849.992 1345.61 849.179 1335.03 843.788C1326.61 839.496 1321.63 834.21 1318.73 831.065C1315.17 827.221 1308.05 819.503 1305.47 808.629C1301.77 793.021 1310.15 782.171 1306.66 780.208C1303.57 778.466 1295.75 786.257 1281.48 799.417C1271.5 808.633 1261.08 817.426 1251.08 826.634C1230.72 845.396 1220.54 854.78 1209.61 863.466C1190.22 878.869 1180.22 886.66 1165.18 890.827C1150.23 894.977 1137.39 894.213 1131.38 893.801C1120.56 893.065 1109.52 892.318 1098.45 885.368C1088.69 879.236 1083.71 871.289 1081.68 867.964C1070.38 849.457 1074.33 831.639 1067.94 830.474C1065.46 830.023 1064.82 832.691 1058.46 836.03C1050.29 840.316 1042.4 840.604 1035.88 840.852C1031.11 841.033 1023.07 841.255 1013.54 838.096C1011.17 837.309 998.953 833.081 988.817 821.392C978.758 809.799 976.697 797.725 976 793.256C975.417 789.509 975.262 777.881 980.505 765.65C981.055 764.375 986.058 755.096 989.558 750.377C993.939 744.473 1009.17 729.237 1010.61 728.043L1010.58 728.038Z" fill="#23A4DE"/>
</g>
</g>
<defs>
<clipPath id="clip0_1_3">
<rect width="1440" height="740" fill="white"/>
</clipPath>
<clipPath id="clip1_1_3">
<rect width="1440" height="810" fill="white" transform="translate(0 -35)"/>
</clipPath>
<clipPath id="clip2_1_3">
<rect width="874" height="154" fill="white" transform="translate(291 253)"/>
</clipPath>
</defs>
</svg>
