<svg width="1440" height="740" viewBox="0 0 1440 740" fill="none" xmlns="http://www.w3.org/2000/svg">
<g clip-path="url(#clip0_8_660)">
<rect width="1440" height="740" fill="#121212"/>
<path d="M1073.44 176.825C1090.34 166.808 1103.67 160.156 1103.67 160.156C1115.15 154.579 1122.16 151.102 1131.83 148.02C1136.74 146.453 1141.13 145.334 1146.67 145.747C1149.68 145.976 1156.93 146.621 1163.11 152.032C1164.66 153.387 1167.98 156.298 1169.53 161.123C1170.04 162.694 1170.98 165.652 1170.34 169.263C1169.95 171.457 1169.22 172.442 1169.7 172.945C1171 174.315 1178.71 169.428 1181.72 167.542C1182.21 167.232 1191.55 161.909 1210.23 151.27C1225.02 142.847 1230.84 140.513 1237.38 138.977C1244.24 137.368 1248.67 137.4 1252.61 138.117C1255.42 138.635 1263.21 140.634 1268.71 146.727C1272.42 150.842 1273.59 154.027 1274.25 156.382C1275.17 159.687 1274.99 163.095 1274.11 166.415C1272.66 171.978 1264.8 177.079 1265.67 178.747C1266.28 179.919 1270.4 178.519 1278.12 177.652C1284.47 176.937 1288.32 176.508 1292.64 177.275C1301.18 178.794 1306.2 183.437 1308.41 185.804C1310.68 188.237 1316.11 193.973 1316.66 201.791C1316.79 203.518 1317.33 210.229 1312.79 215.894C1310.12 219.229 1306.87 220.748 1303.63 222.252C1298.99 224.411 1295.13 225.082 1290.92 225.783C1275.15 228.41 1269.91 229.079 1269.91 229.079C1249.79 231.66 1247.53 232.404 1242.93 233.353C1235.52 235.29 1236.77 234.868 1229.59 237.699C1223.73 240.005 1220.36 240.106 1217.26 239.99C1207.86 239.644 1201.07 235.558 1199.08 233.86C1195.26 230.616 1191.32 225.612 1190.98 220.563C1190.84 218.494 1191.34 216.063 1190.23 215.558C1189.26 215.118 1187.29 216.127 1185.87 217.148C1183.63 218.752 1179.69 221.557 1176.48 223.772C1170.32 228.024 1162.82 231.94 1154.38 236.341C1142.91 242.331 1138.32 243.87 1134.88 244.821C1127.85 246.77 1124.36 246.596 1122.48 246.392C1115.6 245.649 1110.76 242.326 1108.61 240.609C1106.66 239.049 1103.35 236.35 1101.43 231.583C1100.92 230.312 1098.99 225.111 1100.72 219.33C1101.49 216.765 1102.71 214.965 1103.01 214.543C1103.3 214.122 1103.49 213.832 1103.92 213.354C1105.2 211.912 1105.89 211.43 1106.2 210.87C1106.94 209.541 1102.98 212.463 1099.98 214.33C1096.47 216.506 1096.45 216.677 1095.01 217.426C1090.85 219.583 1086.86 219.862 1085.72 219.937C1078.89 220.35 1074.22 218.893 1071.22 217.186C1068.24 215.489 1064.07 211.906 1061.41 207.827C1058.02 202.626 1057.46 194.166 1059.87 189.693C1060.82 187.93 1061.7 186.243 1064.07 183.927C1068.05 180.029 1071.8 177.78 1073.41 176.827L1073.44 176.825Z" fill="#FDC616"/>
<g clip-path="url(#clip1_8_660)">
<path d="M185.5 320C221.122 320 250 291.122 250 255.5C250 219.878 221.122 191 185.5 191C149.878 191 121 219.878 121 255.5C121 291.122 149.878 320 185.5 320Z" fill="white"/>
<path d="M204.601 233.912L192.418 235.854C192.418 235.854 186.177 247.782 183.174 253.426C181.746 256.115 178.541 257.086 175.953 255.656C173.312 254.195 172.481 251.036 173.94 248.305C177.146 242.288 180.287 236.238 183.504 230.231C184.111 229.09 186.187 226.337 189.798 225.227L207.05 220.853C209.127 220.287 211.172 220.298 213.259 220.405C214.782 220.49 216.305 220.554 217.839 220.618C222.077 220.778 225.464 224.064 225.485 228.311L225.336 256.424L243.238 261.268C245.592 261.877 247.008 263.328 247.647 265.664C249.245 271.49 255.23 292.892 255.23 292.892C256.008 295.848 254.474 299.081 251.78 300.361C248.808 301.769 244.048 300.254 242.919 296.915L236.135 273.282L213.089 271.191C205.038 270.433 201.896 263.914 202.279 259.433L204.59 233.901L204.601 233.912Z" fill="#FCC513"/>
<path d="M202.663 272.748C205.772 275.32 209.17 276.109 213.099 276.504L216.39 276.803C216.103 278.638 215.826 280.42 215.549 282.191C215.272 283.919 215.038 285.658 214.718 287.387C214.069 290.865 212.13 293.447 208.989 295.037C202.396 298.366 195.783 301.641 189.169 304.927C186.251 306.378 182.748 305.61 180.894 303.146C178.914 300.51 178.988 297.075 181.171 294.642C181.746 294.002 182.513 293.458 183.28 293.063C189.095 290.118 194.931 287.216 200.778 284.325C201.299 284.069 201.523 283.759 201.587 283.162C201.917 279.726 202.29 276.291 202.652 272.738L202.663 272.748Z" fill="#27A4DD"/>
<path d="M229.873 229.41L239.138 237.401L253.228 230.359C255.826 229.068 258.755 229.836 260.246 232.333C261.673 234.734 261.002 237.668 258.84 239.29L241.577 247.985C239.447 249.052 237.456 248.743 235.634 247.313C233.771 245.862 229.798 242.544 229.798 242.544L229.873 229.41Z" fill="#FCC513"/>
<path d="M218.147 215.059C224.606 215.059 229.841 209.814 229.841 203.344C229.841 196.874 224.606 191.629 218.147 191.629C211.689 191.629 206.454 196.874 206.454 203.344C206.454 209.814 211.689 215.059 218.147 215.059Z" fill="white"/>
<path d="M217.871 215.07C224.329 215.07 229.564 209.825 229.564 203.355C229.564 196.885 224.329 191.64 217.871 191.64C211.412 191.64 206.177 196.885 206.177 203.355C206.177 209.825 211.412 215.07 217.871 215.07Z" fill="#FCC513"/>
<path d="M213.099 271.202L236.146 273.293L242.93 296.925C244.058 300.265 248.83 301.78 251.79 300.372C254.485 299.091 256.018 295.858 255.241 292.903C255.241 292.903 249.256 271.5 247.658 265.675C247.019 263.338 245.603 261.887 243.249 261.279L235.453 259.167L206.507 268.737C207.796 269.921 209.851 270.903 213.099 271.212V271.202Z" fill="#27A4DD"/>
<path d="M240.959 271.223C242.689 271.223 244.09 269.818 244.09 268.086C244.09 266.354 242.689 264.949 240.959 264.949C239.23 264.949 237.828 266.354 237.828 268.086C237.828 269.818 239.23 271.223 240.959 271.223Z" fill="white"/>
<path d="M249.405 295.496C248.574 295.762 247.69 295.304 247.434 294.471L239.362 268.833L243.057 267.649L250.438 293.575C250.672 294.386 250.214 295.24 249.415 295.496H249.405Z" fill="white"/>
<path d="M317.723 276.724C318.758 276.724 319.275 277.242 319.275 278.192V285.188C319.275 286.138 318.758 286.657 317.723 286.657H307.895C298.584 286.657 293.153 280.006 293.153 271.024V227.321C293.153 226.371 293.67 225.852 294.705 225.852H302.55C303.585 225.852 304.102 226.371 304.102 227.321V270.505C304.102 274.565 306.257 276.724 308.843 276.724H317.723Z" fill="white"/>
<path d="M325.224 225.852H332.896C333.845 225.852 334.448 226.371 334.448 227.321V284.756C334.448 285.793 333.845 286.311 332.896 286.311H325.224C324.189 286.311 323.672 285.793 323.672 284.756V227.321C323.672 226.371 324.189 225.852 325.224 225.852Z" fill="white"/>
<path d="M391.175 241.313V284.756C391.175 285.793 390.572 286.311 389.623 286.311H381.951C381.002 286.311 380.485 285.793 380.485 284.756V240.535C380.485 236.994 379.019 235.008 376.261 235.008C373.674 235.008 372.122 236.994 372.122 240.535V284.756C372.122 285.793 371.605 286.311 370.571 286.311H362.984C362.036 286.311 361.519 285.793 361.519 284.756V240.535C361.519 236.994 359.88 235.008 357.294 235.008C354.708 235.008 353.156 236.994 353.156 240.535V284.756C353.156 285.793 352.639 286.311 351.604 286.311H344.018C342.983 286.311 342.466 285.793 342.466 284.756V241.313C342.466 231.38 348.328 224.816 357.294 224.816C361.346 224.816 364.363 226.371 366.777 228.616C369.278 226.371 372.295 224.816 376.261 224.816C385.313 224.816 391.175 231.38 391.175 241.313Z" fill="white"/>
<path d="M400.745 225.852H408.417C409.366 225.852 409.969 226.371 409.969 227.321V284.756C409.969 285.793 409.366 286.311 408.417 286.311H400.745C399.71 286.311 399.193 285.793 399.193 284.756V227.321C399.193 226.371 399.71 225.852 400.745 225.852Z" fill="white"/>
<path d="M444.799 227.321V234.317C444.799 235.267 444.281 235.785 443.247 235.785H435.057V284.756C435.057 285.793 434.539 286.311 433.591 286.311H425.832C424.884 286.311 424.366 285.793 424.366 284.756V235.785H416.09C415.142 235.785 414.625 235.267 414.625 234.317V227.321C414.625 226.371 415.142 225.852 416.09 225.852H443.247C444.281 225.852 444.799 226.371 444.799 227.321Z" fill="white"/>
<path d="M474.024 276.724C475.059 276.724 475.576 277.242 475.576 278.192V285.188C475.576 286.138 475.059 286.657 474.024 286.657H464.196C454.885 286.657 449.454 280.006 449.454 271.024V227.321C449.454 226.371 449.971 225.852 451.006 225.852H458.851C459.885 225.852 460.403 226.371 460.403 227.321V270.505C460.403 274.565 462.558 276.724 465.144 276.724H474.024Z" fill="white"/>
<path d="M477.128 270.419V241.658C477.128 232.071 483.335 225.507 492.646 225.507H501.698C502.646 225.507 503.25 226.025 503.25 226.975V233.885C503.25 234.921 502.646 235.439 501.698 235.439H493.939C490.232 235.439 487.99 238.03 487.99 242.003V250.986H499.543C500.577 250.986 501.094 251.59 501.094 252.541V259.105C501.094 260.141 500.577 260.659 499.543 260.659H487.99V270.16C487.99 274.133 490.232 276.724 493.939 276.724H501.698C502.646 276.724 503.25 277.242 503.25 278.192V285.188C503.25 286.138 502.646 286.657 501.698 286.657H492.646C483.335 286.657 477.128 280.092 477.128 270.419Z" fill="white"/>
<path d="M507.215 269.383C507.215 268.346 507.733 267.828 508.681 267.828H516.44C517.388 267.828 517.906 268.346 517.992 269.296C518.164 274.651 519.889 277.242 523.078 277.242C526.096 277.242 527.648 275.342 527.648 272.233C527.648 260.314 507.733 255.304 507.733 239.067C507.733 230.171 513.681 224.816 522.475 224.816C531.268 224.816 537.303 231.294 537.648 242.003C537.648 243.04 537.131 243.558 536.182 243.558H528.51C527.561 243.558 526.958 243.04 526.958 242.003C526.785 237.08 525.32 234.835 522.647 234.835C519.975 234.835 518.423 236.217 518.423 239.067C518.423 249.69 538.51 254.786 538.51 272.233C538.51 281.561 532.217 287.348 522.906 287.348C513.595 287.348 507.56 280.524 507.215 269.383Z" fill="white"/>
<path d="M542.648 269.383C542.648 268.346 543.166 267.828 544.114 267.828H551.873C552.821 267.828 553.339 268.346 553.425 269.296C553.597 274.651 555.321 277.242 558.511 277.242C561.529 277.242 563.08 275.342 563.08 272.233C563.08 260.314 543.166 255.304 543.166 239.067C543.166 230.171 549.114 224.816 557.908 224.816C566.701 224.816 572.736 231.294 573.081 242.003C573.081 243.04 572.564 243.558 571.615 243.558H563.942C562.994 243.558 562.391 243.04 562.391 242.003C562.218 237.08 560.753 234.835 558.08 234.835C555.408 234.835 553.856 236.217 553.856 239.067C553.856 249.69 573.943 254.786 573.943 272.233C573.943 281.561 567.65 287.348 558.339 287.348C549.028 287.348 542.993 280.524 542.648 269.383Z" fill="white"/>
<path d="M597.651 284.769V241.238C597.651 231.392 603.858 224.915 613.083 224.915C622.307 224.915 628.601 231.392 628.601 241.238V284.769C628.601 285.805 627.997 286.323 627.049 286.323H619.29C618.342 286.323 617.738 285.805 617.738 284.769V267.754H608.427V284.769C608.427 285.805 607.91 286.323 606.962 286.323H599.203C598.168 286.323 597.651 285.805 597.651 284.769ZM617.738 257.809V240.449C617.738 237.08 616.014 235.007 613.083 235.007C610.152 235.007 608.427 237.08 608.427 240.449V257.809H617.738Z" fill="white"/>
<path d="M667.051 266.705V270.333C667.051 280.265 660.844 286.657 651.705 286.657H640.757C638.17 286.657 636.188 284.757 636.188 282.079V240.967C636.188 231.294 642.222 224.902 651.016 224.902C659.809 224.902 666.017 231.294 666.017 240.967V244.422C666.103 248.913 664.379 252.627 661.447 255.045C664.982 257.723 667.051 261.782 667.051 266.705ZM646.964 250.986H651.102C653.688 250.986 655.24 248.999 655.24 245.631V240.017C655.24 236.908 653.602 234.921 650.93 234.921C648.429 234.921 646.964 236.908 646.964 240.017V250.986ZM656.102 266.36C656.102 262.732 654.378 260.573 651.447 260.573H646.964V276.811H651.447C654.378 276.811 656.102 274.738 656.102 271.196V266.36Z" fill="white"/>
<path d="M674.81 225.852H682.483C683.431 225.852 684.035 226.371 684.035 227.321V284.756C684.035 285.793 683.431 286.311 682.483 286.311H674.81C673.776 286.311 673.258 285.793 673.258 284.756V227.321C673.258 226.371 673.776 225.852 674.81 225.852Z" fill="white"/>
<path d="M715.933 276.724C716.967 276.724 717.485 277.242 717.485 278.192V285.188C717.485 286.138 716.967 286.657 715.933 286.657H706.105C696.794 286.657 691.363 280.006 691.363 271.024V227.321C691.363 226.371 691.88 225.852 692.914 225.852H700.76C701.794 225.852 702.311 226.371 702.311 227.321V270.505C702.311 274.565 704.467 276.724 707.053 276.724H715.933Z" fill="white"/>
<path d="M723.433 225.852H731.106C732.054 225.852 732.658 226.371 732.658 227.321V284.756C732.658 285.793 732.054 286.311 731.106 286.311H723.433C722.399 286.311 721.881 285.793 721.881 284.756V227.321C721.881 226.371 722.399 225.852 723.433 225.852Z" fill="white"/>
<path d="M767.487 227.321V234.317C767.487 235.267 766.97 235.785 765.935 235.785H757.745V284.756C757.745 285.793 757.228 286.311 756.28 286.311H748.521C747.572 286.311 747.055 285.793 747.055 284.756V235.785H738.779C737.83 235.785 737.313 235.267 737.313 234.317V227.321C737.313 226.371 737.83 225.852 738.779 225.852H765.935C766.97 225.852 767.487 226.371 767.487 227.321Z" fill="white"/>
<path d="M774.039 225.852H781.712C782.66 225.852 783.264 226.371 783.264 227.321V284.756C783.264 285.793 782.66 286.311 781.712 286.311H774.039C773.005 286.311 772.487 285.793 772.487 284.756V227.321C772.487 226.371 773.005 225.852 774.039 225.852Z" fill="white"/>
<path d="M790.678 270.419V241.658C790.678 232.071 796.885 225.507 806.196 225.507H815.248C816.196 225.507 816.8 226.025 816.8 226.975V233.885C816.8 234.921 816.196 235.439 815.248 235.439H807.489C803.782 235.439 801.541 238.03 801.541 242.003V250.986H813.093C814.127 250.986 814.645 251.59 814.645 252.541V259.105C814.645 260.141 814.127 260.659 813.093 260.659H801.541V270.16C801.541 274.133 803.782 276.724 807.489 276.724H815.248C816.196 276.724 816.8 277.242 816.8 278.192V285.188C816.8 286.138 816.196 286.657 815.248 286.657H806.196C796.885 286.657 790.678 280.092 790.678 270.419Z" fill="white"/>
<path d="M820.766 269.383C820.766 268.346 821.283 267.828 822.231 267.828H829.99C830.939 267.828 831.456 268.346 831.542 269.296C831.714 274.651 833.439 277.242 836.628 277.242C839.646 277.242 841.198 275.342 841.198 272.233C841.198 260.314 821.283 255.304 821.283 239.067C821.283 230.171 827.231 224.816 836.025 224.816C844.819 224.816 850.853 231.294 851.198 242.003C851.198 243.04 850.681 243.558 849.733 243.558H842.06C841.112 243.558 840.508 243.04 840.508 242.003C840.336 237.08 838.87 234.835 836.197 234.835C833.525 234.835 831.973 236.217 831.973 239.067C831.973 249.69 852.06 254.786 852.06 272.233C852.06 281.561 845.767 287.348 836.456 287.348C827.145 287.348 821.11 280.524 820.766 269.383Z" fill="white"/>
<path d="M876 284.953V241.422C876 231.576 882.207 225.099 891.432 225.099C900.656 225.099 906.95 231.576 906.95 241.422V284.953C906.95 285.989 906.346 286.507 905.398 286.507H897.639C896.691 286.507 896.087 285.989 896.087 284.953V267.938H886.776V284.953C886.776 285.989 886.259 286.507 885.311 286.507H877.552C876.517 286.507 876 285.989 876 284.953ZM896.087 257.993V240.633C896.087 237.264 894.363 235.192 891.432 235.192C888.501 235.192 886.776 237.264 886.776 240.633V257.993H896.087Z" fill="white"/>
<path d="M963.014 227.321V270.851C963.014 280.783 957.152 287.347 948.1 287.347C944.048 287.347 941.03 285.793 938.616 283.461C936.202 285.793 933.185 287.347 929.133 287.347C920.167 287.347 914.305 280.783 914.305 270.851V227.321C914.305 226.371 914.822 225.852 915.857 225.852H923.443C924.478 225.852 924.995 226.371 924.995 227.321V271.628C924.995 275.169 926.461 277.156 929.133 277.156C931.806 277.156 933.358 275.169 933.358 271.628V227.321C933.358 226.371 933.875 225.852 934.823 225.852H942.41C943.444 225.852 943.961 226.371 943.961 227.321V271.628C943.961 275.169 945.599 277.156 948.1 277.156C950.858 277.156 952.324 275.169 952.324 271.628V227.321C952.324 226.371 952.841 225.852 953.79 225.852H961.462C962.411 225.852 963.014 226.371 963.014 227.321Z" fill="white"/>
<path d="M970.675 284.769V241.238C970.675 231.392 976.882 224.915 986.106 224.915C995.331 224.915 1001.62 231.392 1001.62 241.238V284.769C1001.62 285.805 1001.02 286.323 1000.07 286.323H992.314C991.365 286.323 990.762 285.805 990.762 284.769V267.754H981.451V284.769C981.451 285.805 980.934 286.323 979.985 286.323H972.226C971.192 286.323 970.675 285.805 970.675 284.769ZM990.774 257.809V240.449C990.774 237.08 989.05 235.007 986.119 235.007C983.188 235.007 981.463 237.08 981.463 240.449V257.809H990.774Z" fill="white"/>
<path d="M1009.21 284.769V241.239C1009.21 231.479 1015.42 224.828 1024.56 224.828C1033.7 224.828 1040.25 231.479 1040.25 241.239V248.753C1040.25 254.885 1037.83 259.549 1033.87 262.313L1042.23 284.769C1042.49 285.719 1041.71 286.324 1040.76 286.324H1032.4C1031.45 286.324 1031.19 285.719 1030.85 284.855L1024.13 265.077H1020.07V284.769C1020.07 285.805 1019.56 286.324 1018.61 286.324H1010.76C1009.73 286.324 1009.21 285.805 1009.21 284.769ZM1024.04 255.132C1027.57 255.132 1029.38 252.973 1029.38 249.086V240.449C1029.38 237.081 1027.57 235.008 1024.64 235.008C1021.88 235.008 1020.07 237.081 1020.07 240.449V255.132H1024.04Z" fill="white"/>
<path d="M1048.44 282.178V230.011C1048.44 227.074 1050.08 225.519 1053.01 225.519H1063.61C1073.01 225.519 1079.13 232.083 1079.13 241.757V270.432C1079.13 280.105 1072.92 286.669 1063.61 286.669H1053.01C1050.08 286.669 1048.44 285.114 1048.44 282.178ZM1063.01 276.724C1066.46 276.724 1068.27 274.565 1068.27 270.765V241.399C1068.27 237.512 1066.54 235.439 1063.01 235.439H1059.21V276.724H1063.01Z" fill="white"/>
<path d="M1084.39 269.383C1084.39 268.346 1084.9 267.828 1085.85 267.828H1093.61C1094.56 267.828 1095.08 268.346 1095.16 269.296C1095.34 274.651 1097.06 277.242 1100.25 277.242C1103.27 277.242 1104.82 275.342 1104.82 272.233C1104.82 260.314 1084.9 255.304 1084.9 239.067C1084.9 230.171 1090.85 224.816 1099.65 224.816C1108.44 224.816 1114.47 231.294 1114.82 242.003C1114.82 243.04 1114.3 243.558 1113.35 243.558H1105.68C1104.73 243.558 1104.13 243.04 1104.13 242.003C1103.96 237.08 1102.49 234.835 1099.82 234.835C1097.15 234.835 1095.59 236.217 1095.59 239.067C1095.59 249.69 1115.68 254.786 1115.68 272.233C1115.68 281.561 1109.39 287.348 1100.08 287.348C1090.77 287.348 1084.73 280.524 1084.39 269.383Z" fill="white"/>
<path d="M1148.18 276.638H1164.91C1165.86 276.638 1166.37 277.242 1166.37 278.192V284.756C1166.37 285.793 1165.86 286.311 1164.91 286.311H1142.23C1139.3 286.311 1137.67 284.67 1137.67 281.734V279.747C1137.67 258.068 1156.37 250.813 1156.37 239.24C1156.37 236.649 1155.43 234.317 1152.49 234.317C1149.74 234.317 1148.27 236.476 1148.1 240.362C1148.01 241.399 1147.41 241.917 1146.55 241.917H1139.99C1139.05 241.917 1138.53 241.399 1138.61 240.362C1138.96 230.603 1143.96 224.816 1152.49 224.816C1161.55 224.816 1166.37 231.294 1166.37 238.894C1166.37 255.823 1148.18 263.337 1148.18 276.638Z" fill="white"/>
<path d="M1171.81 271.456V240.708C1171.81 231.294 1177.84 224.816 1186.46 224.816C1195.08 224.816 1201.12 231.294 1201.12 240.708V271.456C1201.12 280.87 1195.08 287.348 1186.46 287.348C1177.84 287.348 1171.81 280.87 1171.81 271.456ZM1190.17 237.512C1189.56 235.698 1188.27 234.576 1186.46 234.576C1183.87 234.576 1182.15 236.562 1182.15 239.499V264.114L1190.17 237.512ZM1190.77 272.578V247.79L1182.75 274.478C1183.36 276.379 1184.65 277.501 1186.46 277.501C1189.13 277.501 1190.77 275.601 1190.77 272.578Z" fill="white"/>
<path d="M1217.07 276.638H1233.79C1234.74 276.638 1235.26 277.242 1235.26 278.192V284.756C1235.26 285.793 1234.74 286.311 1233.79 286.311H1211.12C1208.19 286.311 1206.55 284.67 1206.55 281.734V279.747C1206.55 258.068 1225.26 250.813 1225.26 239.24C1225.26 236.649 1224.31 234.317 1221.38 234.317C1218.62 234.317 1217.15 236.476 1216.98 240.362C1216.89 241.399 1216.29 241.917 1215.43 241.917H1208.88C1207.93 241.917 1207.41 241.399 1207.5 240.362C1207.84 230.603 1212.84 224.816 1221.38 224.816C1230.43 224.816 1235.26 231.294 1235.26 238.894C1235.26 255.823 1217.07 263.337 1217.07 276.638Z" fill="white"/>
<path d="M1240.92 271.64V240.978C1240.92 231.478 1246.78 225 1255.49 225C1264.2 225 1269.89 231.132 1269.97 240.374C1269.97 241.324 1269.46 241.842 1268.51 241.842H1261.18C1260.23 241.842 1259.63 241.324 1259.63 240.374C1259.54 236.487 1257.9 234.76 1255.49 234.76C1252.82 234.76 1251.27 236.833 1251.27 240.201V248.838C1252.9 247.542 1254.8 246.852 1257.47 246.852C1264.71 246.852 1270.23 253.243 1270.23 261.793V271.64C1270.23 281.054 1264.2 287.532 1255.58 287.532C1246.95 287.532 1240.92 281.054 1240.92 271.64ZM1259.89 272.331V261.707C1259.89 258.598 1258.16 256.525 1255.58 256.525C1252.99 256.525 1251.27 258.252 1251.27 261.707V272.331C1251.27 275.872 1253.08 277.685 1255.58 277.685C1258.08 277.685 1259.89 275.785 1259.89 272.331Z" fill="white"/>
</g>
<path d="M61.2957 591.474C125.088 561.682 174.952 542.538 174.952 542.538C217.899 526.589 244.132 516.599 279.786 508.806C297.864 504.842 313.968 502.283 333.706 505.434C344.416 507.157 370.209 511.645 390.645 532.447C395.76 537.659 406.766 548.853 410.792 566.187C412.101 571.829 414.567 582.457 411.108 594.873C409.01 602.419 406.097 605.636 407.652 607.539C411.88 612.729 441.058 598.025 452.453 592.361C454.312 591.432 489.496 575.709 559.838 544.286C615.511 519.411 637.11 513.045 661.067 509.693C686.15 506.183 702.034 507.657 715.93 511.374C725.835 514.048 753.145 523.43 770.92 546.408C782.932 561.93 786.127 573.418 787.73 581.847C789.993 593.675 788.254 605.526 784.064 616.855C777.082 635.843 747.289 651.249 749.897 657.344C751.717 661.627 766.923 658.002 794.865 657.347C817.87 656.805 831.794 656.488 847.059 660.5C877.181 668.433 893.701 686.198 900.87 695.149C908.259 704.349 925.9 726.057 925.411 753.542C925.31 759.615 925.115 783.225 907.052 801.623C896.433 812.453 884.279 816.758 872.197 821.017C854.886 827.134 840.828 828.288 825.524 829.443C768.138 833.767 749.138 834.491 749.138 834.491C676.203 837.318 667.835 839.221 651.077 841.123C623.872 845.608 628.51 844.52 601.844 852.2C580.1 858.452 568.011 857.772 556.922 856.411C523.318 852.308 500.294 835.947 493.678 829.398C481.004 816.889 468.478 798.195 468.858 780.453C469.017 773.18 471.562 764.841 467.752 762.734C464.424 760.898 457.049 763.821 451.618 766.947C443.091 771.864 428.06 780.45 415.862 787.202C392.418 800.161 364.306 811.534 332.638 824.311C289.611 841.71 272.684 845.675 260.052 847.94C234.215 852.583 221.78 850.905 215.102 849.613C190.673 844.899 174.348 831.801 167.18 825.139C160.689 819.088 149.692 808.642 144.324 791.398C142.883 786.798 137.619 768.036 145.648 748.369C149.22 739.646 154.165 733.732 155.372 732.35C156.555 730.968 157.336 730.016 159.021 728.475C164.051 723.831 166.672 722.358 167.97 720.5C171.037 716.082 155.939 725.076 144.567 730.672C131.311 737.197 131.174 737.786 125.78 739.961C110.173 746.214 95.7877 745.964 91.6638 745.873C67.063 745.214 50.7633 738.687 40.548 731.798C30.4052 724.955 16.6141 711.155 8.37025 696.086C-2.1485 676.871 -1.46898 647.142 8.5785 632.256C12.5409 626.388 16.2424 620.768 25.4618 613.405C40.978 601.012 55.1186 594.306 61.1999 591.474L61.2957 591.474Z" fill="#FDC616"/>
</g>
<defs>
<clipPath id="clip0_8_660">
<rect width="1440" height="740" fill="white"/>
</clipPath>
<clipPath id="clip1_8_660">
<rect width="1179" height="149" fill="white" transform="translate(91 184)"/>
</clipPath>
</defs>
</svg>
