<svg width="1440" height="740" viewBox="0 0 1440 740" fill="none" xmlns="http://www.w3.org/2000/svg">
<g clip-path="url(#clip0_8_154)">
<rect width="1440" height="740" fill="#121212"/>
<g clip-path="url(#clip1_8_154)">
<path d="M214.576 199.038C214.576 199.038 220.052 192.919 240.309 174.931C264.376 153.567 258.01 160.354 290.352 135.657C301.316 127.287 313.686 118.418 330.099 109.449C333.944 107.351 344.87 101.58 360.089 98.3132C370.908 95.9913 376.876 96.4456 378.978 96.6508C388.692 97.6034 395.63 101.181 399.7 103.323C408.842 108.141 414.332 113.924 417.097 116.898C421.832 121.984 424.524 126.429 425.173 127.519C425.965 128.85 429.78 135.411 431.876 144.511C432.62 147.75 433.204 150.31 433.274 153.919C433.352 158.029 432.668 159.236 433.395 159.833C436.638 162.494 457.274 144.919 460.713 141.973C476.55 128.396 482.486 124.266 495.729 113.02C511.571 99.5775 508.688 99.9348 537.333 75.1653C546.607 67.1507 554.301 60.1907 567.426 53.6368C572.609 51.0466 578.132 48.1239 585.632 46.3728C587.807 45.8629 594.996 44.2986 604.522 44.7105C614.345 45.1359 621.749 47.4544 624.965 48.5729C637.743 53.0303 645.714 60.029 648.418 62.5541C655.039 68.74 658.933 75.0702 661.119 79.3689C665.731 88.423 666.874 96.4446 667.229 100.538C668.397 114.02 661.615 121.226 664.482 123.434C667.908 126.071 679.079 117.651 689.312 110.865C701.173 103.005 713.822 97.0347 738.88 84.7962C753.696 77.5598 765.132 73.1771 788.014 64.4266C801.464 59.2774 817.667 53.8222 850.074 42.9195C876.946 33.8737 890.352 29.5723 909.704 27.2879C925.092 25.4718 933.323 26.2206 940.9 28.3168C959.474 33.4586 970.087 45.5998 973.048 49.0898C984.11 62.0991 986.513 75.4883 987.11 79.6322C989.325 94.8854 984.773 106.49 982.345 112.461C979.441 119.604 974.671 131.316 961.986 139.742C955.755 143.882 950.101 145.566 945.642 146.842C912.024 156.458 895.215 161.265 891.975 161.949C879.808 164.509 862.186 170.758 826.845 182.786C798.526 192.421 784.358 197.244 771.655 202.749C766.341 205.056 758.371 208.64 708.813 236.596C661.203 263.457 649.35 270.974 635.963 280.768C625.873 288.145 616.284 296.132 606.711 304.109C601.732 308.258 598.615 310.953 593.228 313.793C580.202 320.656 568.052 320.913 565.719 320.936C559.743 320.992 549.611 320.179 539.033 314.788C530.612 310.496 525.629 305.209 522.728 302.065C519.174 298.221 512.046 290.503 509.47 279.629C505.773 264.021 514.147 253.171 510.661 251.208C507.569 249.466 499.754 257.256 485.483 270.417C475.499 279.633 465.076 288.426 455.083 297.634C434.717 316.396 424.539 325.78 413.606 334.466C394.218 349.869 384.22 357.66 369.184 361.826C354.23 365.977 341.387 365.212 335.381 364.801C324.563 364.065 313.515 363.318 302.453 356.368C292.69 350.236 287.714 342.289 285.683 338.964C274.38 320.457 278.332 302.639 271.939 301.474C269.457 301.023 268.825 303.691 262.464 307.03C254.292 311.316 246.402 311.604 239.877 311.852C235.106 312.033 227.065 312.255 217.538 309.096C215.167 308.309 202.953 304.081 192.817 292.392C182.758 280.799 180.697 268.725 180 264.256C179.417 260.509 179.262 248.881 184.505 236.65C185.055 235.375 190.058 226.096 193.558 221.377C197.939 215.473 213.172 200.237 214.61 199.043L214.576 199.038Z" fill="#23A4DE"/>
<path d="M675.22 174.509C696.666 162.066 713.557 153.796 713.557 153.796C728.122 146.863 737.012 142.541 749.272 138.7C755.488 136.748 761.056 135.351 768.075 135.849C771.883 136.124 781.067 136.906 788.877 143.587C790.832 145.262 795.038 148.857 796.986 154.826C797.62 156.769 798.814 160.429 797.985 164.901C797.483 167.618 796.562 168.839 797.166 169.46C798.809 171.154 808.585 165.084 812.405 162.741C813.028 162.357 824.878 155.743 848.57 142.524C867.321 132.06 874.697 129.155 882.994 127.237C891.68 125.228 897.296 125.256 902.284 126.133C905.84 126.767 915.706 129.222 922.651 136.751C927.343 141.837 928.819 145.777 929.643 148.69C930.803 152.778 930.56 156.998 929.442 161.11C927.581 168.001 917.612 174.337 918.715 176.399C919.486 177.848 924.705 176.105 934.483 175.011C942.533 174.11 947.405 173.569 952.882 174.508C963.69 176.366 970.033 182.101 972.824 185.026C975.7 188.032 982.558 195.119 983.238 204.796C983.391 206.934 984.053 215.24 978.289 222.266C974.901 226.401 970.773 228.29 966.668 230.16C960.788 232.845 955.894 233.685 950.564 234.563C930.576 237.856 923.936 238.697 923.936 238.697C898.449 241.943 895.574 242.871 889.756 244.057C880.356 246.474 881.949 245.948 872.836 249.471C865.405 252.341 861.145 252.475 857.215 252.339C845.305 251.935 836.725 246.894 834.202 244.796C829.371 240.79 824.399 234.605 823.983 228.357C823.814 225.795 824.448 222.785 823.046 222.162C821.822 221.619 819.327 222.874 817.52 224.141C814.682 226.133 809.677 229.616 805.609 232.366C797.79 237.645 788.285 242.512 777.576 247.982C763.028 255.427 757.215 257.343 752.856 258.53C743.941 260.96 739.528 260.754 737.147 260.506C728.435 259.603 722.305 255.503 719.585 253.382C717.122 251.456 712.942 248.123 710.526 242.227C709.878 240.654 707.451 234.221 709.657 227.059C710.639 223.883 712.19 221.651 712.571 221.128C712.943 220.605 713.187 220.247 713.73 219.653C715.35 217.865 716.223 217.266 716.621 216.573C717.56 214.925 712.544 218.553 708.73 220.872C704.284 223.575 704.254 223.786 702.43 224.717C697.151 227.398 692.099 227.754 690.651 227.849C682.004 228.377 676.086 226.586 672.291 224.48C668.523 222.387 663.259 217.962 659.902 212.919C655.619 206.489 654.936 196.017 657.998 190.474C659.206 188.289 660.33 186.199 663.334 183.326C668.391 178.49 673.142 175.696 675.186 174.512L675.22 174.509Z" fill="#FDC616"/>
<g clip-path="url(#clip2_8_154)">
<path d="M342.832 410C383.608 410 416.664 376.869 416.664 336C416.664 295.131 383.608 262 342.832 262C302.056 262 269 295.131 269 336C269 376.869 302.056 410 342.832 410Z" fill="white"/>
<path d="M364.989 311.293L351 313.523C351 313.523 343.834 327.225 340.386 333.708C338.748 336.797 335.067 337.912 332.096 336.27C329.063 334.591 328.109 330.963 329.785 327.825C333.465 320.913 337.072 313.964 340.765 307.064C341.462 305.753 343.847 302.591 347.992 301.316L367.801 296.292C370.186 295.642 372.533 295.654 374.93 295.777C376.679 295.875 378.427 295.948 380.188 296.022C385.055 296.206 388.943 299.981 388.968 304.858L388.796 337.152L409.351 342.716C412.054 343.415 413.68 345.082 414.414 347.766C416.248 354.457 423.12 379.042 423.12 379.042C424.013 382.437 422.252 386.15 419.158 387.621C415.747 389.239 410.281 387.499 408.985 383.663L401.195 356.516L374.734 354.114C365.49 353.244 361.883 345.756 362.323 340.608L364.976 311.28L364.989 311.293Z" fill="#FCC718"/>
<path d="M362.763 355.903C366.334 358.857 370.234 359.764 374.747 360.217L378.525 360.561C378.195 362.669 377.877 364.715 377.559 366.75C377.241 368.735 376.972 370.733 376.605 372.718C375.859 376.714 373.634 379.679 370.027 381.506C362.458 385.329 354.864 389.092 347.271 392.867C343.92 394.533 339.897 393.651 337.769 390.82C335.495 387.793 335.581 383.846 338.087 381.052C338.748 380.317 339.628 379.692 340.509 379.238C347.185 375.856 353.886 372.522 360.599 369.201C361.198 368.907 361.455 368.551 361.528 367.865C361.907 363.919 362.335 359.972 362.751 355.891L362.763 355.903Z" fill="#18A4DE"/>
<path d="M394.005 306.121L404.644 315.3L420.821 307.211C423.805 305.728 427.167 306.611 428.879 309.479C430.518 312.236 429.747 315.607 427.265 317.469L407.444 327.458C404.998 328.683 402.712 328.328 400.621 326.686C398.481 325.019 393.92 321.207 393.92 321.207L394.005 306.121Z" fill="#FCC718"/>
<path d="M380.543 289.637C387.958 289.637 393.969 283.612 393.969 276.18C393.969 268.748 387.958 262.723 380.543 262.723C373.127 262.723 367.116 268.748 367.116 276.18C367.116 283.612 373.127 289.637 380.543 289.637Z" fill="white"/>
<path d="M380.225 289.649C387.64 289.649 393.651 283.624 393.651 276.192C393.651 268.76 387.64 262.735 380.225 262.735C372.81 262.735 366.798 268.76 366.798 276.192C366.798 283.624 372.81 289.649 380.225 289.649Z" fill="#FCC718"/>
<path d="M374.747 354.126L401.208 356.528L408.997 383.675C410.293 387.511 415.771 389.251 419.17 387.633C422.264 386.163 424.025 382.449 423.132 379.054C423.132 379.054 416.26 354.469 414.426 347.778C413.692 345.094 412.066 343.427 409.364 342.728L400.413 340.302L367.177 351.295C368.657 352.656 371.017 353.783 374.747 354.138V354.126Z" fill="#18A4DE"/>
<path d="M406.735 354.151C408.72 354.151 410.33 352.538 410.33 350.548C410.33 348.558 408.72 346.944 406.735 346.944C404.749 346.944 403.14 348.558 403.14 350.548C403.14 352.538 404.749 354.151 406.735 354.151Z" fill="white"/>
<path d="M416.431 382.033C415.478 382.339 414.463 381.812 414.169 380.856L404.9 351.406L409.143 350.045L417.617 379.827C417.886 380.758 417.361 381.738 416.444 382.033H416.431Z" fill="white"/>
<path d="M465.379 338.868V298.007C465.379 287.945 472.251 281.058 482.376 281.058H492.586C493.467 281.058 494.176 281.67 494.176 282.553V289.612C494.176 290.495 493.467 291.205 492.586 291.205H482.376C478.769 291.205 476.385 293.853 476.385 297.995V305.667H481.398C491.792 305.667 496.719 313.437 496.719 322.874V326.404C496.719 337.348 491.792 343.525 481.398 343.525H470.038C467.042 343.525 465.367 341.846 465.367 338.843L465.379 338.868ZM480.615 333.39C483.868 333.39 485.629 330.656 485.629 326.416V322.886C485.629 318.646 483.868 315.827 480.615 315.827H476.385V333.39H480.615Z" fill="#FDFFFC"/>
<path d="M501.476 326.955V297.566C501.476 287.774 507.81 281.058 517.323 281.058H526.568C527.534 281.058 528.157 281.585 528.157 282.553V289.612C528.157 290.666 527.546 291.205 526.568 291.205H518.644C514.853 291.205 512.567 293.853 512.567 297.909V307.089H524.367C525.418 307.089 525.956 307.702 525.956 308.682V315.386C525.956 316.44 525.43 316.979 524.367 316.979H512.567V326.686C512.567 330.742 514.853 333.39 518.644 333.39H526.568C527.534 333.39 528.157 333.917 528.157 334.885V342.03C528.157 342.998 527.546 343.525 526.568 343.525H517.323C507.81 343.525 501.476 336.821 501.476 326.931V326.955Z" fill="#FDFFFC"/>
<path d="M531.936 328.365C531.85 327.311 532.461 326.771 533.427 326.771H541.522C542.403 326.771 542.928 327.298 543.014 328.365C543.369 331.625 545.215 333.488 548.125 333.488C551.647 333.488 553.579 331.11 553.579 327.666V322.984C553.579 319.369 551.647 316.808 548.028 316.808H542.305C541.339 316.808 540.813 316.195 540.813 315.214V308.51C540.813 307.456 541.339 306.917 542.305 306.917H547.416C550.498 306.917 552.087 304.54 552.087 301.353V295.703C552.087 292.529 550.412 290.495 547.856 290.495C545.301 290.495 543.98 292.345 543.723 296.23C543.638 297.284 543.014 297.823 542.048 297.823H534.124C533.158 297.823 532.633 297.296 532.633 296.23C533.244 286.609 539.15 280.347 547.869 280.347C556.587 280.347 563.007 287.051 563.007 296.941V300.299C563.007 304.883 561.331 308.854 558.519 311.243C562.566 313.621 564.682 318.217 564.682 323.156V326.955C564.682 337.017 558.348 343.721 547.869 343.721C538.539 343.721 532.547 337.716 531.936 328.365Z" fill="#FDFFFC"/>
<path d="M571.028 341.601V286.009C571.028 282.835 572.618 281.07 575.699 281.07H582.388C584.943 281.07 586.081 282.565 586.875 285.212L592.243 302.775C593.124 305.949 594.359 310.545 595.056 313.891H595.227C595.936 310.533 597.159 305.949 598.137 302.775L603.42 285.212C604.215 282.565 605.45 281.07 607.907 281.07H614.682C617.677 281.07 619.255 282.835 619.255 286.009V341.601C619.255 342.655 618.729 343.194 617.763 343.194H610.011C608.959 343.194 608.519 342.667 608.519 341.601V312.923C608.519 306.831 608.788 301.182 608.959 295.532H608.69C607.981 299.233 606.929 304.086 605.878 307.8L601.475 323.156C600.766 325.718 599.189 327.213 596.462 327.213H593.821C591.094 327.213 589.504 325.718 588.807 323.156L584.405 307.8C583.439 304.098 582.29 299.245 581.593 295.532H581.324C581.593 301.182 581.764 306.831 581.764 312.923V341.601C581.764 342.655 581.324 343.194 580.272 343.194H572.618C571.566 343.194 571.028 342.667 571.028 341.601Z" fill="#FDFFFC"/>
<path d="M626.848 326.955V297.566C626.848 287.774 633.182 281.058 642.696 281.058H651.94C652.906 281.058 653.529 281.585 653.529 282.553V289.612C653.529 290.666 652.918 291.205 651.94 291.205H644.016C640.226 291.205 637.939 293.853 637.939 297.909V307.089H649.739C650.79 307.089 651.328 307.702 651.328 308.682V315.386C651.328 316.44 650.803 316.979 649.739 316.979H637.939V326.686C637.939 330.742 640.226 333.39 644.016 333.39H651.94C652.906 333.39 653.529 333.917 653.529 334.885V342.03C653.529 342.998 652.918 343.525 651.94 343.525H642.696C633.182 343.525 626.848 336.821 626.848 326.931V326.955Z" fill="#FDFFFC"/>
<path d="M659.24 341.601V323.769C659.24 318.119 661.355 313.266 665.048 310.618L658.8 283.08C658.531 282.112 659.069 281.401 660.206 281.401H667.958C668.839 281.401 669.45 281.756 669.634 282.724L674.647 307.346H679.135V282.896C679.135 281.928 679.66 281.401 680.626 281.401H688.379C689.345 281.401 689.968 281.928 689.968 282.896V307.346H694.371L699.384 282.724C699.555 281.756 700.179 281.401 701.145 281.401H708.897C709.949 281.401 710.487 282.112 710.218 283.08L704.055 310.618C707.662 313.266 709.778 318.119 709.778 323.769V341.601C709.778 342.655 709.252 343.194 708.188 343.194H700.264C699.298 343.194 698.773 342.667 698.773 341.601V323.511C698.773 319.626 696.926 317.506 693.405 317.506H689.968V341.601C689.968 342.655 689.357 343.194 688.379 343.194H680.626C679.66 343.194 679.135 342.667 679.135 341.601V317.506H675.613C672.091 317.506 670.331 319.626 670.331 323.511V341.601C670.331 342.655 669.719 343.194 668.741 343.194H660.817C659.851 343.194 659.228 342.667 659.228 341.601H659.24Z" fill="#FDFFFC"/>
<path d="M738.574 281.413H746.498C747.464 281.413 747.99 281.94 747.99 282.908V341.589C747.99 342.643 747.464 343.182 746.498 343.182H738.574C737.608 343.182 737.082 342.655 737.082 341.589V317.053H728.193V341.589C728.193 342.643 727.581 343.182 726.603 343.182H718.765C717.714 343.182 717.176 342.655 717.176 341.589V282.921C717.176 281.952 717.701 281.425 718.765 281.425H726.603C727.569 281.425 728.193 281.952 728.193 282.921V306.929H737.082V282.921C737.082 281.952 737.608 281.425 738.574 281.425V281.413Z" fill="#FDFFFC"/>
<path d="M758.2 281.413H766.038C767.004 281.413 767.628 281.94 767.628 282.908V341.589C767.628 342.643 767.016 343.182 766.038 343.182H758.2C757.148 343.182 756.61 342.655 756.61 341.589V282.921C756.61 281.952 757.136 281.425 758.2 281.425V281.413Z" fill="#FDFFFC"/>
<path d="M794.468 341.601V286.009C794.468 282.835 796.057 281.07 799.139 281.07H805.827C808.383 281.07 809.52 282.565 810.315 285.212L815.683 302.775C816.563 305.949 817.799 310.545 818.496 313.891H818.667C819.376 310.533 820.599 305.949 821.577 302.775L826.859 285.212C827.654 282.565 828.889 281.07 831.347 281.07H838.121C841.117 281.07 842.694 282.835 842.694 286.009V341.601C842.694 342.655 842.169 343.194 841.203 343.194H833.45C832.399 343.194 831.958 342.667 831.958 341.601V312.923C831.958 306.831 832.227 301.182 832.399 295.532H832.13C831.42 299.233 830.369 304.086 829.317 307.8L824.915 323.156C824.206 325.718 822.629 327.213 819.902 327.213H817.26C814.534 327.213 812.944 325.718 812.247 323.156L807.845 307.8C806.879 304.098 805.73 299.245 805.033 295.532H804.764C805.033 301.182 805.204 306.831 805.204 312.923V341.601C805.204 342.655 804.764 343.194 803.712 343.194H796.057C795.006 343.194 794.468 342.667 794.468 341.601Z" fill="#FDFFFC"/>
<path d="M850.288 327.311V297.309C850.288 287.161 856.891 280.457 866.49 280.457C876.089 280.457 882.606 287.161 882.606 297.051V327.58C882.606 337.458 876.089 344.175 866.49 344.175C856.891 344.175 850.288 337.471 850.288 327.323V327.311ZM871.516 328.365V296.243C871.516 292.884 869.584 290.678 866.502 290.678C863.421 290.678 861.391 292.884 861.391 296.5V328.095C861.391 331.711 863.421 333.831 866.502 333.831C869.584 333.831 871.516 331.711 871.516 328.365Z" fill="#FDFFFC"/>
<path d="M887.705 341.601V323.769C887.705 318.119 889.821 313.266 893.513 310.618L887.265 283.08C886.996 282.112 887.534 281.401 888.671 281.401H896.424C897.304 281.401 897.915 281.756 898.099 282.724L903.112 307.346H907.6V282.896C907.6 281.928 908.126 281.401 909.092 281.401H916.844C917.81 281.401 918.434 281.928 918.434 282.896V307.346H922.836L927.849 282.724C928.02 281.756 928.644 281.401 929.61 281.401H937.363C938.414 281.401 938.952 282.112 938.683 283.08L932.52 310.618C936.128 313.266 938.243 318.119 938.243 323.769V341.601C938.243 342.655 937.717 343.194 936.653 343.194H928.73C927.764 343.194 927.238 342.667 927.238 341.601V323.511C927.238 319.626 925.391 317.506 921.87 317.506H918.434V341.601C918.434 342.655 917.822 343.194 916.844 343.194H909.092C908.126 343.194 907.6 342.667 907.6 341.601V317.506H904.078C900.557 317.506 898.796 319.626 898.796 323.511V341.601C898.796 342.655 898.185 343.194 897.206 343.194H889.283C888.317 343.194 887.693 342.667 887.693 341.601H887.705Z" fill="#FDFFFC"/>
<path d="M940.97 342.042V334.897C940.97 333.929 941.496 333.488 942.462 333.218C946.069 332.777 947.83 330.044 947.83 324.921V297.382C947.83 287.504 954.261 281.058 963.762 281.058H973.447C976.797 281.058 978.558 282.822 978.558 286.082V341.674C978.558 342.643 978.032 343.268 976.969 343.268H969.131C968.165 343.268 967.541 342.655 967.541 341.674V291.218H964.105C960.852 291.218 958.908 293.424 958.908 297.309V326.171C958.908 336.319 952.745 342.937 942.535 343.562C941.483 343.648 940.945 343.035 940.945 342.067L940.97 342.042Z" fill="#FDFFFC"/>
<path d="M1007.88 281.413H1015.72C1016.68 281.413 1017.31 281.94 1017.31 282.908V338.941C1017.31 341.944 1015.63 343.525 1012.64 343.525H1002.16C991.239 343.525 986.042 336.025 986.042 326.134V282.921C986.042 281.952 986.567 281.425 987.631 281.425H995.641C996.607 281.425 997.132 281.952 997.132 282.921V326.514C997.132 330.571 999.162 333.402 1002.41 333.402H1006.29V282.921C1006.29 281.952 1006.82 281.425 1007.88 281.425V281.413Z" fill="#FDFFFC"/>
<path d="M1057.01 323.156V326.857C1057.01 337.005 1050.68 343.537 1041.34 343.537H1030.15C1027.51 343.537 1025.48 341.601 1025.48 338.856V296.855C1025.48 286.977 1031.64 280.445 1040.61 280.445C1049.59 280.445 1055.94 286.977 1055.94 296.855V300.385C1056.02 304.969 1054.26 308.768 1051.27 311.243C1054.87 313.976 1056.99 318.131 1056.99 323.156H1057.01ZM1036.49 307.101H1040.72C1043.37 307.101 1044.96 305.067 1044.96 301.635V295.899C1044.96 292.725 1043.28 290.691 1040.55 290.691C1038 290.691 1036.51 292.725 1036.51 295.899V307.101H1036.49ZM1045.84 322.801C1045.84 319.099 1044.08 316.893 1041.08 316.893H1036.51V333.488H1041.08C1044.08 333.488 1045.84 331.367 1045.84 327.752V322.813V322.801Z" fill="#FDFFFC"/>
<path d="M1060.89 327.311V297.309C1060.89 287.161 1067.49 280.457 1077.09 280.457C1086.69 280.457 1093.21 287.161 1093.21 297.051V327.58C1093.21 337.458 1086.69 344.175 1077.09 344.175C1067.49 344.175 1060.89 337.471 1060.89 327.323V327.311ZM1082.1 328.365V296.243C1082.1 292.884 1080.17 290.678 1077.09 290.678C1074.01 290.678 1071.98 292.884 1071.98 296.5V328.095C1071.98 331.711 1074.01 333.831 1077.09 333.831C1080.17 333.831 1082.1 331.711 1082.1 328.365Z" fill="#FDFFFC"/>
<path d="M1099.71 327.654V296.941C1099.71 286.965 1106.05 280.347 1115.56 280.347C1124.53 280.347 1130.53 286.965 1130.88 297.909C1130.88 298.963 1130.35 299.502 1129.39 299.502H1121.38C1120.5 299.502 1119.89 298.975 1119.89 298.007C1119.72 293.068 1117.96 290.776 1115.31 290.776C1112.5 290.776 1110.83 292.811 1110.83 296.157V328.45C1110.83 331.809 1112.5 333.831 1115.31 333.831C1118.13 333.831 1120.07 331.098 1120.24 325.803C1120.33 324.835 1120.85 324.308 1121.73 324.308H1129.74C1130.8 324.308 1131.33 324.921 1131.24 325.987C1130.88 337.373 1124.99 344.26 1115.56 344.26C1106.13 344.26 1099.71 337.556 1099.71 327.666V327.654Z" fill="#FDFFFC"/>
<path d="M1163.9 282.92V290.066C1163.9 291.034 1163.37 291.561 1162.31 291.561H1153.94V341.601C1153.94 342.655 1153.42 343.194 1152.45 343.194H1144.53C1143.56 343.194 1143.04 342.667 1143.04 341.601V291.561H1134.59C1133.62 291.561 1133.09 291.034 1133.09 290.066V282.92C1133.09 281.952 1133.62 281.425 1134.59 281.425H1162.32C1163.37 281.425 1163.91 281.952 1163.91 282.92H1163.9Z" fill="#FDFFFC"/>
<path d="M1170.58 281.413H1178.42C1179.39 281.413 1180.01 281.94 1180.01 282.908V341.589C1180.01 342.643 1179.4 343.182 1178.42 343.182H1170.58C1169.53 343.182 1168.99 342.655 1168.99 341.589V282.921C1168.99 281.952 1169.52 281.425 1170.58 281.425V281.413Z" fill="#FDFFFC"/>
<path d="M467.654 389.766V366.872C467.654 362.105 470.564 358.93 474.917 358.93C479.27 358.93 482.18 362.105 482.18 366.872V389.766C482.18 390.035 482.009 390.207 481.74 390.207H479.979C479.71 390.207 479.539 390.035 479.539 389.766V379.005H470.295V389.766C470.295 390.035 470.124 390.207 469.855 390.207H468.094C467.825 390.207 467.654 390.035 467.654 389.766ZM479.539 376.53V366.872C479.539 363.428 477.864 361.406 474.917 361.406C471.97 361.406 470.295 363.441 470.295 366.872V376.53H479.539Z" fill="#FDFFFC"/>
<path d="M487.769 389.766V369.385C487.769 368.551 488.258 368.061 489.089 368.061H490.361C491.107 368.061 491.596 368.331 491.902 369.029L494.983 375.696C495.692 377.192 496.389 378.834 496.829 380.023H496.915C497.355 378.785 498.016 377.241 498.761 375.66L501.843 369.041C502.149 368.331 502.638 368.073 503.384 368.073H504.655C505.487 368.073 505.976 368.564 505.976 369.397V389.778C505.976 390.048 505.805 390.219 505.536 390.219H503.909C503.64 390.219 503.469 390.048 503.469 389.778V377.29C503.469 374.912 503.518 372.522 503.604 371.027H503.518C502.858 372.522 502.246 374.066 501.586 375.574L498.774 382.057C498.468 382.719 497.979 383.074 497.233 383.074H496.524C495.778 383.074 495.289 382.719 494.983 382.057L492.122 375.574C491.461 374.079 490.887 372.534 490.226 371.027H490.141C490.226 372.522 490.275 374.912 490.275 377.29V389.778C490.275 390.048 490.104 390.219 489.835 390.219H488.209C487.94 390.219 487.769 390.048 487.769 389.778V389.766Z" fill="#FDFFFC"/>
<path d="M524.477 370.132V389.766C524.477 390.035 524.305 390.207 524.036 390.207H522.41C522.141 390.207 521.97 390.035 521.97 389.766V370.573H514.23V389.766C514.23 390.035 514.059 390.207 513.79 390.207H512.163C511.894 390.207 511.723 390.035 511.723 389.766V370.132C511.723 368.858 512.432 368.147 513.704 368.147H522.508C523.78 368.147 524.489 368.858 524.489 370.132H524.477Z" fill="#FDFFFC"/>
<path d="M543.149 368.588V392.548C543.149 396.69 540.458 399.472 536.46 399.472C532.461 399.472 529.942 396.69 529.771 392.548C529.771 392.278 529.942 392.107 530.212 392.107H531.838C532.107 392.107 532.278 392.242 532.278 392.548C532.364 395.367 533.904 397.046 536.46 397.046C539.016 397.046 540.642 395.367 540.642 392.548V387.523C539.59 388.896 538.135 389.778 536.46 389.778C532.449 389.778 529.771 386.825 529.771 382.854V368.6C529.771 368.331 529.942 368.159 530.212 368.159H531.838C532.107 368.159 532.278 368.331 532.278 368.6V382.854C532.278 385.501 533.868 387.351 536.46 387.351C539.052 387.351 540.642 385.501 540.642 382.854V368.6C540.642 368.331 540.813 368.159 541.082 368.159H542.708C542.977 368.159 543.149 368.331 543.149 368.6V368.588Z" fill="#FDFFFC"/>
<path d="M551.867 389.766V370.573H547.074C546.805 370.573 546.634 370.402 546.634 370.132V368.588C546.634 368.318 546.805 368.147 547.074 368.147H559.228C559.497 368.147 559.668 368.318 559.668 368.588V370.132C559.668 370.402 559.497 370.573 559.228 370.573H554.386V389.766C554.386 390.035 554.215 390.207 553.946 390.207H552.319C552.05 390.207 551.879 390.035 551.879 389.766H551.867Z" fill="#FDFFFC"/>
<path d="M561.552 383.761C561.552 380.28 564.242 377.412 568.24 377.412H572.508V374.544C572.508 371.983 570.967 370.132 568.375 370.132C566.039 370.132 564.584 371.762 564.413 374.189C564.364 374.495 564.242 374.63 563.973 374.63H562.346C562.077 374.63 561.906 374.458 561.906 374.189C562.126 370.439 564.596 367.706 568.375 367.706C572.422 367.706 575.027 370.659 575.027 374.544V383.761C575.027 387.682 572.385 390.599 568.338 390.599C564.291 390.599 561.564 387.682 561.564 383.761H561.552ZM572.508 383.761V379.839H568.24C565.648 379.839 564.058 381.604 564.058 383.761C564.058 386.359 565.648 388.173 568.326 388.173C571.004 388.173 572.508 386.359 572.508 383.761Z" fill="#FDFFFC"/>
<path d="M592.268 394.57V390.293H585.885C581.923 390.293 578.976 387.56 578.976 383.675V368.588C578.976 368.318 579.147 368.147 579.416 368.147H581.043C581.312 368.147 581.483 368.318 581.483 368.588V383.675C581.483 386.236 583.293 387.866 585.885 387.866H589.761V368.588C589.761 368.318 589.932 368.147 590.201 368.147H591.828C592.097 368.147 592.268 368.318 592.268 368.588V387.866H592.757C594.029 387.866 594.738 388.577 594.738 389.852V394.57C594.738 394.84 594.567 395.011 594.298 395.011H592.708C592.439 395.011 592.268 394.84 592.268 394.57Z" fill="#FDFFFC"/>
<path d="M598.039 363.551C598.039 362.534 598.749 361.835 599.751 361.835C600.754 361.835 601.463 362.546 601.463 363.551C601.463 364.482 600.717 365.267 599.751 365.267C598.785 365.267 598.039 364.519 598.039 363.551ZM598.529 389.766V368.588C598.529 368.318 598.7 368.147 598.969 368.147H600.595C600.864 368.147 601.035 368.318 601.035 368.588V389.766C601.035 390.035 600.864 390.207 600.595 390.207H598.969C598.7 390.207 598.529 390.035 598.529 389.766Z" fill="#FDFFFC"/>
<path d="M619.389 374.275V389.754C619.389 390.023 619.218 390.195 618.949 390.195H617.323C617.054 390.195 616.883 390.023 616.883 389.754V381.812H612.346L608.079 389.888C607.993 390.109 607.773 390.195 607.553 390.195H605.657C605.352 390.195 605.132 389.974 605.303 389.668L609.876 381.236C607.504 380.268 605.914 377.976 605.914 374.753C605.914 370.426 608.947 367.693 613.006 367.693C616.699 367.693 619.389 370.341 619.389 374.262V374.275ZM616.883 374.275C616.883 371.676 615.342 370.132 613.006 370.132C610.316 370.132 608.433 371.762 608.433 374.765C608.433 377.768 610.243 379.398 612.835 379.398H616.883V374.275Z" fill="#FDFFFC"/>
<path d="M622.031 388.614C622.031 387.462 622.911 386.579 624.06 386.579C625.21 386.579 626.09 387.462 626.09 388.614C626.09 389.766 625.161 390.648 624.06 390.648C622.96 390.648 622.031 389.717 622.031 388.614Z" fill="#FDFFFC"/>
<path d="M639.504 389.766V366.823C639.504 362.191 642.231 358.881 646.633 358.881C651.035 358.881 653.811 362.191 653.811 366.823V371.591C653.811 375.782 650.998 378.687 646.633 378.687H642.145V389.766C642.145 390.035 641.974 390.207 641.705 390.207H639.944C639.675 390.207 639.504 390.035 639.504 389.766ZM646.633 376.211C649.36 376.211 651.17 374.397 651.17 371.578V366.811C651.17 363.551 649.409 361.345 646.633 361.345C643.857 361.345 642.145 363.551 642.145 366.811V376.211H646.633Z" fill="#FDFFFC"/>
<path d="M656.758 383.675V374.716C656.758 370.659 659.35 367.742 663.495 367.742C667.64 367.742 670.233 370.659 670.233 374.532C670.233 378.196 667.543 380.978 663.495 380.978H659.264V383.675C659.264 386.322 660.854 388.173 663.495 388.173C665.965 388.173 667.592 386.359 667.677 383.675C667.677 383.368 667.848 383.234 668.117 383.234H669.744C670.013 383.234 670.184 383.405 670.184 383.675C670.049 387.817 667.371 390.599 663.495 390.599C659.619 390.599 656.758 387.817 656.758 383.675ZM663.495 378.552C666.136 378.552 667.726 376.873 667.726 374.532C667.726 371.971 666.136 370.169 663.495 370.169C660.854 370.169 659.264 371.983 659.264 374.716V378.552H663.495Z" fill="#FDFFFC"/>
<path d="M673.583 383.761C673.583 380.28 676.273 377.412 680.272 377.412H684.539V374.544C684.539 371.983 682.999 370.132 680.406 370.132C678.071 370.132 676.616 371.762 676.445 374.189C676.396 374.495 676.273 374.63 676.004 374.63H674.378C674.109 374.63 673.938 374.458 673.938 374.189C674.158 370.439 676.628 367.706 680.406 367.706C684.454 367.706 687.058 370.659 687.058 374.544V383.761C687.058 387.682 684.417 390.599 680.37 390.599C676.322 390.599 673.595 387.682 673.595 383.761H673.583ZM684.539 383.761V379.839H680.272C677.68 379.839 676.09 381.604 676.09 383.761C676.09 386.359 677.68 388.173 680.357 388.173C683.035 388.173 684.539 386.359 684.539 383.761Z" fill="#FDFFFC"/>
<path d="M691.448 383.712V369.115C691.448 363.772 693.735 361.578 697.036 360.475C699.152 359.813 701.438 359.323 702.844 359.016C703.15 358.967 703.334 359.102 703.334 359.408V360.904C703.334 361.173 703.199 361.345 702.942 361.394C701.23 361.7 698.846 362.227 697.489 362.767C695.116 363.784 693.967 365.058 693.967 369.115V370.708C694.982 369.385 696.559 368.588 698.638 368.588C702.245 368.588 704.935 371.542 704.935 375.512V383.712C704.935 387.682 702.245 390.636 698.198 390.636C694.15 390.636 691.46 387.682 691.46 383.712H691.448ZM702.404 383.712V375.512C702.404 372.865 700.815 371.015 698.173 371.015C695.532 371.015 693.943 372.865 693.943 375.512V383.712C693.943 386.359 695.532 388.209 698.173 388.209C700.815 388.209 702.404 386.359 702.404 383.712Z" fill="#FDFFFC"/>
<path d="M709.276 363.551C709.276 362.534 709.986 361.835 710.988 361.835C711.991 361.835 712.7 362.546 712.7 363.551C712.7 364.482 711.954 365.267 710.988 365.267C710.022 365.267 709.276 364.519 709.276 363.551ZM709.765 389.766V368.588C709.765 368.318 709.937 368.147 710.206 368.147H711.832C712.101 368.147 712.272 368.318 712.272 368.588V389.766C712.272 390.035 712.101 390.207 711.832 390.207H710.206C709.937 390.207 709.765 390.035 709.765 389.766Z" fill="#FDFFFC"/>
<path d="M715.745 389.766V388.222C715.745 387.952 715.879 387.78 716.185 387.731C717.677 387.511 718.606 386.101 718.606 383.454V374.679C718.606 370.794 721.553 368.061 725.515 368.061H729.037C730.308 368.061 731.017 368.772 731.017 370.046V389.766C731.017 390.036 730.846 390.207 730.577 390.207H728.951C728.682 390.207 728.511 390.036 728.511 389.766V370.488H725.515C722.923 370.488 721.113 372.118 721.113 374.679V383.454C721.113 387.425 719.303 389.987 716.185 390.207C715.916 390.207 715.745 390.036 715.745 389.766Z" fill="#FDFFFC"/>
<path d="M736.263 363.551C736.263 362.534 736.972 361.835 737.975 361.835C738.978 361.835 739.687 362.546 739.687 363.551C739.687 364.482 738.941 365.267 737.975 365.267C737.009 365.267 736.263 364.519 736.263 363.551ZM736.74 389.766V368.588C736.74 368.318 736.911 368.147 737.18 368.147H738.807C739.076 368.147 739.247 368.318 739.247 368.588V389.766C739.247 390.035 739.076 390.207 738.807 390.207H737.18C736.911 390.207 736.74 390.035 736.74 389.766Z" fill="#FDFFFC"/>
<path d="M747.965 389.766V370.573H743.172C742.903 370.573 742.732 370.402 742.732 370.132V368.588C742.732 368.318 742.903 368.147 743.172 368.147H755.326C755.595 368.147 755.767 368.318 755.767 368.588V370.132C755.767 370.402 755.595 370.573 755.326 370.573H750.484V389.766C750.484 390.035 750.313 390.207 750.044 390.207H748.418C748.149 390.207 747.977 390.035 747.977 389.766H747.965Z" fill="#FDFFFC"/>
<path d="M757.65 383.761C757.65 380.28 760.34 377.412 764.338 377.412H768.606V374.544C768.606 371.983 767.065 370.132 764.473 370.132C762.137 370.132 760.682 371.762 760.511 374.189C760.462 374.495 760.34 374.63 760.071 374.63H758.445C758.176 374.63 758.004 374.458 758.004 374.189C758.224 370.439 760.694 367.706 764.473 367.706C768.52 367.706 771.125 370.659 771.125 374.544V383.761C771.125 387.682 768.484 390.599 764.436 390.599C760.389 390.599 757.662 387.682 757.662 383.761H757.65ZM768.618 383.761V379.839H764.351C761.758 379.839 760.169 381.604 760.169 383.761C760.169 386.359 761.758 388.173 764.436 388.173C767.114 388.173 768.618 386.359 768.618 383.761Z" fill="#FDFFFC"/>
<path d="M788.378 394.57V390.293H781.995C778.034 390.293 775.087 387.56 775.087 383.675V368.588C775.087 368.318 775.258 368.147 775.527 368.147H777.153C777.422 368.147 777.593 368.318 777.593 368.588V383.675C777.593 386.236 779.403 387.866 781.995 387.866H785.872V368.588C785.872 368.318 786.043 368.147 786.312 368.147H787.938C788.207 368.147 788.378 368.318 788.378 368.588V387.866H788.867C790.139 387.866 790.848 388.577 790.848 389.852V394.57C790.848 394.84 790.677 395.011 790.408 395.011H788.819C788.55 395.011 788.378 394.84 788.378 394.57Z" fill="#FDFFFC"/>
<path d="M794.15 363.551C794.15 362.534 794.859 361.835 795.862 361.835C796.864 361.835 797.574 362.546 797.574 363.551C797.574 364.482 796.828 365.267 795.862 365.267C794.896 365.267 794.15 364.519 794.15 363.551ZM794.627 389.766V368.588C794.627 368.318 794.798 368.147 795.067 368.147H796.693C796.962 368.147 797.134 368.318 797.134 368.588V389.766C797.134 390.035 796.962 390.207 796.693 390.207H795.067C794.798 390.207 794.627 390.035 794.627 389.766Z" fill="#FDFFFC"/>
<path d="M815.5 374.275V389.754C815.5 390.023 815.329 390.195 815.06 390.195H813.433C813.164 390.195 812.993 390.023 812.993 389.754V381.812H808.457L804.189 389.888C804.103 390.109 803.883 390.195 803.663 390.195H801.768C801.462 390.195 801.242 389.974 801.413 389.668L805.986 381.236C803.614 380.268 802.025 377.976 802.025 374.753C802.025 370.426 805.057 367.693 809.117 367.693C812.81 367.693 815.5 370.341 815.5 374.262V374.275ZM812.993 374.275C812.993 371.676 811.452 370.132 809.117 370.132C806.427 370.132 804.544 371.762 804.544 374.765C804.544 377.768 806.353 379.398 808.946 379.398H812.993V374.275Z" fill="#FDFFFC"/>
<path d="M818.141 388.614C818.141 387.462 819.021 386.579 820.171 386.579C821.32 386.579 822.201 387.462 822.201 388.614C822.201 389.766 821.271 390.648 820.171 390.648C819.07 390.648 818.141 389.717 818.141 388.614Z" fill="#FDFFFC"/>
<path d="M835.04 383.05V366.468C835.04 361.921 837.901 358.881 842.218 358.881C846.534 358.881 849.261 362.141 849.395 367.044C849.395 367.313 849.224 367.485 848.955 367.485H847.194C846.925 367.485 846.754 367.35 846.754 367.044C846.62 363.379 844.859 361.357 842.218 361.357C839.356 361.357 837.681 363.257 837.681 366.48V383.062C837.681 386.285 839.356 388.185 842.218 388.185C845.079 388.185 846.889 385.979 846.974 382.278C846.974 381.971 847.145 381.836 847.414 381.836H849.175C849.444 381.836 849.615 381.971 849.615 382.229C849.481 387.302 846.534 390.661 842.218 390.661C837.901 390.661 835.04 387.621 835.04 383.074V383.05Z" fill="#FDFFFC"/>
<path d="M852.036 383.712V374.618C852.036 370.647 854.727 367.693 858.811 367.693C862.895 367.693 865.585 370.647 865.585 374.618V383.712C865.585 387.682 862.895 390.636 858.811 390.636C854.727 390.636 852.036 387.682 852.036 383.712ZM863.042 383.712V374.618C863.042 371.922 861.452 370.071 858.811 370.071C856.17 370.071 854.58 371.922 854.58 374.618V383.712C854.58 386.408 856.17 388.258 858.811 388.258C861.452 388.258 863.042 386.408 863.042 383.712Z" fill="#FDFFFC"/>
<path d="M882.851 394.57V390.293H876.468C872.506 390.293 869.559 387.56 869.559 383.675V368.588C869.559 368.318 869.73 368.147 869.999 368.147H871.626C871.895 368.147 872.066 368.318 872.066 368.588V383.675C872.066 386.236 873.876 387.866 876.468 387.866H880.344V368.588C880.344 368.318 880.515 368.147 880.784 368.147H882.411C882.68 368.147 882.851 368.318 882.851 368.588V387.866H883.34C884.612 387.866 885.321 388.577 885.321 389.852V394.57C885.321 394.84 885.15 395.011 884.881 395.011H883.291C883.022 395.011 882.851 394.84 882.851 394.57Z" fill="#FDFFFC"/>
<path d="M888.61 363.551C888.61 362.534 889.319 361.835 890.322 361.835C891.325 361.835 892.034 362.546 892.034 363.551C892.034 364.482 891.288 365.267 890.322 365.267C889.356 365.267 888.61 364.519 888.61 363.551ZM889.099 389.766V368.588C889.099 368.318 889.27 368.147 889.539 368.147H891.166C891.435 368.147 891.606 368.318 891.606 368.588V389.766C891.606 390.035 891.435 390.207 891.166 390.207H889.539C889.27 390.207 889.099 390.035 889.099 389.766Z" fill="#FDFFFC"/>
<path d="M896.057 383.761C896.057 380.28 898.747 377.412 902.746 377.412H907.013V374.544C907.013 371.983 905.472 370.132 902.88 370.132C900.545 370.132 899.089 371.762 898.918 374.189C898.869 374.495 898.747 374.63 898.478 374.63H896.852C896.583 374.63 896.411 374.458 896.411 374.189C896.632 370.439 899.102 367.706 902.88 367.706C906.927 367.706 909.532 370.659 909.532 374.544V383.761C909.532 387.682 906.891 390.599 902.843 390.599C898.796 390.599 896.069 387.682 896.069 383.761H896.057ZM907.013 383.761V379.839H902.746C900.153 379.839 898.564 381.604 898.564 383.761C898.564 386.359 900.153 388.173 902.831 388.173C905.509 388.173 907.013 386.359 907.013 383.761Z" fill="#FDFFFC"/>
<path d="M910.84 389.766V388.222C910.84 387.952 910.975 387.78 911.281 387.731C912.772 387.511 913.702 386.101 913.702 383.454V374.679C913.702 370.794 916.649 368.061 920.61 368.061H924.132C925.404 368.061 926.113 368.772 926.113 370.046V389.766C926.113 390.036 925.942 390.207 925.673 390.207H924.046C923.777 390.207 923.606 390.036 923.606 389.766V370.488H920.61C918.018 370.488 916.208 372.118 916.208 374.679V383.454C916.208 387.425 914.399 389.987 911.281 390.207C911.012 390.207 910.84 390.036 910.84 389.766Z" fill="#FDFFFC"/>
<path d="M931.848 388.307V368.588C931.848 368.318 932.019 368.147 932.288 368.147H933.914C934.183 368.147 934.354 368.318 934.354 368.588V376.53H938.231C942.327 376.53 945.139 379.348 945.139 383.368C945.139 387.388 942.327 390.293 938.231 390.293H933.829C932.557 390.293 931.848 389.582 931.848 388.307ZM938.231 387.903C940.957 387.903 942.633 386.138 942.633 383.356C942.633 380.574 940.957 378.895 938.231 378.895H934.354V387.891H938.231V387.903Z" fill="#FDFFFC"/>
<path d="M958.871 368.147H960.498C960.767 368.147 960.938 368.318 960.938 368.588V389.766C960.938 390.035 960.767 390.207 960.498 390.207H958.871C958.602 390.207 958.431 390.035 958.431 389.766V379.924H950.691V389.766C950.691 390.035 950.52 390.207 950.251 390.207H948.624C948.355 390.207 948.184 390.035 948.184 389.766V368.588C948.184 368.318 948.355 368.147 948.624 368.147H950.251C950.52 368.147 950.691 368.318 950.691 368.588V377.547H958.431V368.588C958.431 368.318 958.602 368.147 958.871 368.147Z" fill="#FDFFFC"/>
<path d="M965.474 383.761C965.474 380.28 968.165 377.412 972.163 377.412H976.431V374.544C976.431 371.983 974.89 370.132 972.298 370.132C969.962 370.132 968.507 371.762 968.336 374.189C968.287 374.495 968.165 374.63 967.896 374.63H966.269C966 374.63 965.829 374.458 965.829 374.189C966.049 370.439 968.519 367.706 972.298 367.706C976.345 367.706 978.949 370.659 978.949 374.544V383.761C978.949 387.682 976.308 390.599 972.261 390.599C968.213 390.599 965.487 387.682 965.487 383.761H965.474ZM976.431 383.761V379.839H972.163C969.571 379.839 967.981 381.604 967.981 383.761C967.981 386.359 969.571 388.173 972.249 388.173C974.927 388.173 976.431 386.359 976.431 383.761Z" fill="#FDFFFC"/>
<path d="M992.632 383.761C992.632 380.28 995.323 377.412 999.321 377.412H1003.59V374.544C1003.59 371.983 1002.05 370.132 999.456 370.132C997.12 370.132 995.665 371.762 995.494 374.189C995.445 374.495 995.323 374.63 995.054 374.63H993.427C993.158 374.63 992.987 374.458 992.987 374.189C993.207 370.439 995.677 367.706 999.456 367.706C1003.5 367.706 1006.11 370.659 1006.11 374.544V383.761C1006.11 387.682 1003.47 390.599 999.419 390.599C995.372 390.599 992.645 387.682 992.645 383.761H992.632ZM1003.59 383.761V379.839H999.321C996.729 379.839 995.139 381.604 995.139 383.761C995.139 386.359 996.729 388.173 999.407 388.173C1002.08 388.173 1003.59 386.359 1003.59 383.761Z" fill="#FDFFFC"/>
<path d="M1007.43 394.57V388.663C1007.43 388.136 1007.73 387.829 1008.39 387.695C1010.11 387.303 1010.99 385.758 1010.99 383.332V375.562C1010.99 371.1 1013.85 368.061 1017.72 368.061H1021.33C1022.6 368.061 1023.31 368.772 1023.31 370.046V387.78H1023.8C1025.07 387.78 1025.78 388.491 1025.78 389.766V394.57C1025.78 394.84 1025.61 395.011 1025.34 395.011H1023.75C1023.48 395.011 1023.31 394.84 1023.31 394.57V390.207H1009.89V394.57C1009.89 394.84 1009.71 395.011 1009.45 395.011H1007.86C1007.59 395.011 1007.42 394.84 1007.42 394.57H1007.43ZM1020.81 387.78V370.488H1017.72C1015.22 370.488 1013.49 372.424 1013.49 375.562V383.111C1013.49 385.317 1012.78 386.812 1011.73 387.793H1020.81V387.78Z" fill="#FDFFFC"/>
<path d="M1027.59 383.761C1027.59 380.28 1030.28 377.412 1034.28 377.412H1038.55V374.544C1038.55 371.983 1037.01 370.132 1034.42 370.132C1032.08 370.132 1030.62 371.762 1030.45 374.189C1030.4 374.495 1030.28 374.63 1030.01 374.63H1028.39C1028.12 374.63 1027.95 374.458 1027.95 374.189C1028.17 370.439 1030.64 367.706 1034.42 367.706C1038.46 367.706 1041.07 370.659 1041.07 374.544V383.761C1041.07 387.682 1038.43 390.599 1034.38 390.599C1030.33 390.599 1027.6 387.682 1027.6 383.761H1027.59ZM1038.55 383.761V379.839H1034.28C1031.69 379.839 1030.1 381.604 1030.1 383.761C1030.1 386.359 1031.69 388.173 1034.37 388.173C1037.04 388.173 1038.55 386.359 1038.55 383.761Z" fill="#FDFFFC"/>
<path d="M1058.66 370.132V389.766C1058.66 390.035 1058.49 390.207 1058.22 390.207H1056.6C1056.33 390.207 1056.16 390.035 1056.16 389.766V370.573H1048.42V389.766C1048.42 390.035 1048.24 390.207 1047.98 390.207H1046.35C1046.08 390.207 1045.91 390.035 1045.91 389.766V370.132C1045.91 368.858 1046.62 368.147 1047.89 368.147H1056.69C1057.97 368.147 1058.68 368.858 1058.68 370.132H1058.66Z" fill="#FDFFFC"/>
<path d="M1067.38 389.766V370.573H1062.59C1062.32 370.573 1062.15 370.402 1062.15 370.132V368.588C1062.15 368.318 1062.32 368.147 1062.59 368.147H1074.74C1075.01 368.147 1075.18 368.318 1075.18 368.588V370.132C1075.18 370.402 1075.01 370.573 1074.74 370.573H1069.9V389.766C1069.9 390.035 1069.73 390.207 1069.46 390.207H1067.83C1067.56 390.207 1067.39 390.035 1067.39 389.766H1067.38Z" fill="#FDFFFC"/>
<path d="M1077.07 383.761C1077.07 380.28 1079.76 377.412 1083.75 377.412H1088.02V374.544C1088.02 371.983 1086.48 370.132 1083.89 370.132C1081.55 370.132 1080.1 371.762 1079.93 374.189C1079.88 374.495 1079.76 374.63 1079.49 374.63H1077.86C1077.59 374.63 1077.42 374.458 1077.42 374.189C1077.64 370.439 1080.11 367.706 1083.89 367.706C1087.94 367.706 1090.54 370.659 1090.54 374.544V383.761C1090.54 387.682 1087.9 390.599 1083.85 390.599C1079.8 390.599 1077.08 387.682 1077.08 383.761H1077.07ZM1088.02 383.761V379.839H1083.75C1081.16 379.839 1079.57 381.604 1079.57 383.761C1079.57 386.359 1081.16 388.173 1083.84 388.173C1086.52 388.173 1088.02 386.359 1088.02 383.761Z" fill="#FDFFFC"/>
<path d="M1107.79 394.57V390.293H1101.41C1097.45 390.293 1094.5 387.56 1094.5 383.675V368.588C1094.5 368.318 1094.67 368.147 1094.94 368.147H1096.57C1096.84 368.147 1097.01 368.318 1097.01 368.588V383.675C1097.01 386.236 1098.82 387.866 1101.41 387.866H1105.29V368.588C1105.29 368.318 1105.46 368.147 1105.73 368.147H1107.35C1107.62 368.147 1107.79 368.318 1107.79 368.588V387.866H1108.28C1109.56 387.866 1110.26 388.577 1110.26 389.852V394.57C1110.26 394.84 1110.09 395.011 1109.82 395.011H1108.23C1107.97 395.011 1107.79 394.84 1107.79 394.57Z" fill="#FDFFFC"/>
<path d="M1113.55 363.551C1113.55 362.534 1114.26 361.835 1115.27 361.835C1116.27 361.835 1116.98 362.546 1116.98 363.551C1116.98 364.482 1116.23 365.267 1115.27 365.267C1114.3 365.267 1113.55 364.519 1113.55 363.551ZM1114.04 389.766V368.588C1114.04 368.318 1114.21 368.147 1114.48 368.147H1116.11C1116.38 368.147 1116.55 368.318 1116.55 368.588V389.766C1116.55 390.035 1116.38 390.207 1116.11 390.207H1114.48C1114.21 390.207 1114.04 390.035 1114.04 389.766Z" fill="#FDFFFC"/>
<path d="M1134.9 374.275V389.754C1134.9 390.023 1134.73 390.195 1134.46 390.195H1132.84C1132.57 390.195 1132.4 390.023 1132.4 389.754V381.812H1127.86L1123.59 389.888C1123.51 390.109 1123.29 390.195 1123.07 390.195H1121.17C1120.87 390.195 1120.65 389.974 1120.82 389.668L1125.39 381.236C1123.02 380.268 1121.43 377.976 1121.43 374.753C1121.43 370.426 1124.46 367.693 1128.52 367.693C1132.21 367.693 1134.9 370.341 1134.9 374.262V374.275ZM1132.4 374.275C1132.4 371.676 1130.86 370.132 1128.52 370.132C1125.83 370.132 1123.95 371.762 1123.95 374.765C1123.95 377.768 1125.76 379.398 1128.35 379.398H1132.4V374.275Z" fill="#FDFFFC"/>
</g>
<path d="M997.05 714.741C997.05 714.741 1002.81 708.886 1023.89 691.873C1048.94 671.667 1042.26 678.147 1075.73 655.001C1087.08 647.157 1099.85 638.881 1116.67 630.695C1120.61 628.781 1131.79 623.531 1147.15 620.985C1158.07 619.176 1164 619.911 1166.09 620.215C1175.75 621.624 1182.51 625.525 1186.48 627.857C1195.38 633.099 1200.6 639.135 1203.22 642.236C1207.71 647.539 1210.19 652.106 1210.78 653.225C1211.51 654.593 1215.01 661.326 1216.68 670.515C1217.27 673.785 1217.73 676.37 1217.63 679.979C1217.52 684.088 1216.78 685.261 1217.47 685.892C1220.59 688.702 1242.03 672.12 1245.6 669.339C1262.06 656.523 1268.19 652.678 1281.94 642.068C1298.4 629.387 1295.51 629.608 1325.29 606.216C1334.93 598.647 1342.94 592.058 1356.36 586.129C1361.66 583.786 1367.31 581.127 1374.89 579.732C1377.09 579.325 1384.34 578.101 1393.84 578.961C1403.63 579.849 1410.91 582.514 1414.07 583.783C1426.63 588.837 1434.26 596.204 1436.84 598.854C1443.16 605.345 1446.76 611.851 1448.74 616.248C1452.92 625.51 1453.68 633.576 1453.84 637.682C1454.37 651.204 1447.26 658.082 1450.02 660.423C1453.32 663.219 1464.87 655.334 1475.41 649.039C1487.63 641.746 1500.55 636.378 1526.16 625.334C1541.3 618.804 1552.93 614.965 1576.2 607.303C1589.87 602.793 1606.31 598.107 1639.2 588.744C1666.47 580.975 1680.06 577.31 1699.5 575.94C1714.96 574.851 1723.14 575.987 1730.61 578.438C1748.92 584.449 1758.95 597.077 1761.75 600.703C1772.18 614.219 1773.95 627.707 1774.35 631.874C1775.85 647.215 1770.75 658.592 1768.05 664.441C1764.81 671.44 1759.49 682.914 1746.42 690.733C1740.01 694.574 1734.28 695.99 1729.76 697.055C1695.73 705.075 1678.71 709.086 1675.44 709.616C1663.17 711.599 1645.27 717.011 1609.4 727.361C1580.66 735.651 1566.28 739.8 1553.33 744.701C1547.92 746.755 1539.79 749.959 1488.97 775.548C1440.14 800.135 1427.95 807.086 1414.12 816.238C1403.69 823.132 1393.74 830.658 1383.8 838.175C1378.63 842.085 1375.39 844.63 1369.87 847.212C1356.54 853.454 1344.39 853.139 1342.06 853.051C1336.09 852.825 1326 851.536 1315.69 845.652C1307.48 840.969 1302.75 835.453 1300 832.175C1296.64 828.168 1289.88 820.122 1287.82 809.14C1284.86 793.374 1293.74 782.931 1290.35 780.806C1287.34 778.92 1279.17 786.334 1264.29 798.807C1253.89 807.542 1243.06 815.834 1232.64 824.561C1211.42 842.342 1200.81 851.236 1189.48 859.398C1169.38 873.87 1159.03 881.181 1143.81 884.634C1128.68 888.076 1115.89 886.707 1109.91 886.013C1099.14 884.768 1088.14 883.5 1077.42 876.037C1067.95 869.452 1063.36 861.279 1061.48 857.862C1051.07 838.843 1055.85 821.231 1049.52 819.766C1047.06 819.199 1046.31 821.834 1039.8 824.869C1031.43 828.766 1023.54 828.682 1017.01 828.622C1012.23 828.578 1004.19 828.42 994.822 824.816C992.491 823.919 980.49 819.119 970.916 806.965C961.414 794.911 959.925 782.754 959.439 778.257C959.033 774.486 959.427 762.864 965.24 750.894C965.85 749.646 971.284 740.613 975.002 736.064C979.657 730.373 995.591 715.872 997.084 714.748L997.05 714.741Z" fill="#23A4DE"/>
</g>
</g>
<defs>
<clipPath id="clip0_8_154">
<rect width="1440" height="740" fill="white"/>
</clipPath>
<clipPath id="clip1_8_154">
<rect width="1440" height="810" fill="white" transform="translate(0 -35)"/>
</clipPath>
<clipPath id="clip2_8_154">
<rect width="911" height="148" fill="white" transform="translate(269 262)"/>
</clipPath>
</defs>
</svg>
