<svg width="1440" height="740" viewBox="0 0 1440 740" fill="none" xmlns="http://www.w3.org/2000/svg">
<g clip-path="url(#clip0_8_311)">
<rect width="1440" height="740" fill="#121212"/>
<path d="M1073.44 123.825C1090.34 113.808 1103.67 107.156 1103.67 107.156C1115.15 101.579 1122.16 98.1019 1131.83 95.0196C1136.74 93.453 1141.13 92.3335 1146.67 92.7473C1149.68 92.9755 1156.93 93.6215 1163.11 99.0315C1164.66 100.387 1167.98 103.298 1169.53 108.123C1170.04 109.694 1170.98 112.652 1170.34 116.263C1169.95 118.457 1169.22 119.442 1169.7 119.945C1171 121.315 1178.71 116.428 1181.72 114.542C1182.21 114.232 1191.55 108.909 1210.23 98.2697C1225.02 89.8474 1230.84 87.5129 1237.38 85.9769C1244.24 84.3684 1248.67 84.3998 1252.61 85.1168C1255.42 85.6349 1263.21 87.634 1268.71 93.7266C1272.42 97.8424 1273.59 101.027 1274.25 103.382C1275.17 106.687 1274.99 110.095 1274.11 113.415C1272.66 118.978 1264.8 124.079 1265.67 125.747C1266.28 126.919 1270.4 125.519 1278.12 124.652C1284.47 123.937 1288.32 123.508 1292.64 124.275C1301.18 125.794 1306.2 130.437 1308.41 132.804C1310.68 135.237 1316.11 140.973 1316.66 148.791C1316.79 150.518 1317.33 157.229 1312.79 162.894C1310.12 166.229 1306.87 167.748 1303.63 169.252C1298.99 171.411 1295.13 172.082 1290.92 172.783C1275.15 175.41 1269.91 176.079 1269.91 176.079C1249.79 178.66 1247.53 179.404 1242.93 180.353C1235.52 182.29 1236.77 181.868 1229.59 184.699C1223.73 187.005 1220.36 187.106 1217.26 186.99C1207.86 186.644 1201.07 182.558 1199.08 180.86C1195.26 177.616 1191.32 172.612 1190.98 167.563C1190.84 165.494 1191.34 163.063 1190.23 162.558C1189.26 162.118 1187.29 163.127 1185.87 164.148C1183.63 165.752 1179.69 168.557 1176.48 170.772C1170.32 175.024 1162.82 178.94 1154.38 183.341C1142.91 189.331 1138.32 190.87 1134.88 191.821C1127.85 193.77 1124.36 193.596 1122.48 193.392C1115.6 192.649 1110.76 189.326 1108.61 187.609C1106.66 186.049 1103.35 183.35 1101.43 178.583C1100.92 177.312 1098.99 172.111 1100.72 166.33C1101.49 163.765 1102.71 161.965 1103.01 161.543C1103.3 161.122 1103.49 160.832 1103.92 160.354C1105.2 158.912 1105.89 158.43 1106.2 157.87C1106.94 156.541 1102.98 159.463 1099.98 161.33C1096.47 163.506 1096.45 163.677 1095.01 164.426C1090.85 166.583 1086.86 166.862 1085.72 166.937C1078.89 167.35 1074.22 165.893 1071.22 164.186C1068.24 162.489 1064.07 158.906 1061.41 154.827C1058.02 149.626 1057.46 141.166 1059.87 136.693C1060.82 134.93 1061.7 133.243 1064.07 130.927C1068.05 127.029 1071.8 124.78 1073.41 123.827L1073.44 123.825Z" fill="#FDC616"/>
<g clip-path="url(#clip1_8_311)">
<path d="M185.5 267C221.122 267 250 238.122 250 202.5C250 166.878 221.122 138 185.5 138C149.878 138 121 166.878 121 202.5C121 238.122 149.878 267 185.5 267Z" fill="white"/>
<path d="M204.601 180.912L192.418 182.854C192.418 182.854 186.177 194.782 183.174 200.426C181.746 203.115 178.541 204.086 175.953 202.656C173.312 201.195 172.481 198.037 173.94 195.305C177.146 189.288 180.287 183.238 183.504 177.231C184.111 176.09 186.187 173.337 189.798 172.227L207.05 167.853C209.127 167.287 211.172 167.298 213.259 167.405C214.782 167.49 216.305 167.554 217.839 167.618C222.077 167.778 225.464 171.064 225.485 175.311L225.336 203.425L243.238 208.268C245.592 208.877 247.008 210.328 247.647 212.664C249.245 218.49 255.23 239.892 255.23 239.892C256.008 242.848 254.474 246.081 251.78 247.361C248.808 248.769 244.048 247.254 242.919 243.915L236.135 220.282L213.089 218.191C205.038 217.433 201.896 210.914 202.279 206.433L204.59 180.902L204.601 180.912Z" fill="#FCC513"/>
<path d="M202.663 219.749C205.772 222.32 209.17 223.11 213.099 223.504L216.39 223.803C216.103 225.638 215.826 227.42 215.549 229.191C215.272 230.92 215.038 232.659 214.718 234.387C214.069 237.865 212.13 240.447 208.989 242.037C202.396 245.366 195.783 248.641 189.169 251.928C186.251 253.379 182.748 252.61 180.894 250.146C178.914 247.51 178.988 244.075 181.171 241.642C181.746 241.002 182.513 240.458 183.28 240.063C189.095 237.118 194.931 234.216 200.778 231.325C201.299 231.069 201.523 230.759 201.587 230.162C201.917 226.726 202.29 223.291 202.652 219.738L202.663 219.749Z" fill="#27A4DD"/>
<path d="M229.873 176.41L239.138 184.401L253.228 177.359C255.826 176.068 258.755 176.836 260.246 179.333C261.673 181.734 261.002 184.668 258.84 186.29L241.577 194.985C239.447 196.052 237.456 195.743 235.634 194.313C233.771 192.862 229.798 189.544 229.798 189.544L229.873 176.41Z" fill="#FCC513"/>
<path d="M218.147 162.059C224.606 162.059 229.841 156.814 229.841 150.344C229.841 143.874 224.606 138.63 218.147 138.63C211.689 138.63 206.454 143.874 206.454 150.344C206.454 156.814 211.689 162.059 218.147 162.059Z" fill="white"/>
<path d="M217.871 162.07C224.329 162.07 229.564 156.825 229.564 150.355C229.564 143.885 224.329 138.64 217.871 138.64C211.412 138.64 206.177 143.885 206.177 150.355C206.177 156.825 211.412 162.07 217.871 162.07Z" fill="#FCC513"/>
<path d="M213.099 218.202L236.146 220.293L242.93 243.925C244.058 247.265 248.83 248.78 251.79 247.372C254.485 246.091 256.018 242.858 255.241 239.903C255.241 239.903 249.256 218.5 247.658 212.675C247.019 210.338 245.603 208.887 243.249 208.279L235.453 206.167L206.507 215.737C207.796 216.921 209.851 217.903 213.099 218.212V218.202Z" fill="#27A4DD"/>
<path d="M240.959 218.223C242.689 218.223 244.09 216.819 244.09 215.086C244.09 213.354 242.689 211.949 240.959 211.949C239.23 211.949 237.828 213.354 237.828 215.086C237.828 216.819 239.23 218.223 240.959 218.223Z" fill="white"/>
<path d="M249.405 242.496C248.574 242.762 247.69 242.304 247.434 241.471L239.362 215.833L243.057 214.649L250.438 240.575C250.672 241.386 250.214 242.24 249.415 242.496H249.405Z" fill="white"/>
<path d="M317.723 223.724C318.758 223.724 319.275 224.242 319.275 225.192V232.188C319.275 233.138 318.758 233.657 317.723 233.657H307.895C298.584 233.657 293.153 227.006 293.153 218.024V174.321C293.153 173.371 293.67 172.852 294.705 172.852H302.55C303.585 172.852 304.102 173.371 304.102 174.321V217.505C304.102 221.565 306.257 223.724 308.843 223.724H317.723Z" fill="white"/>
<path d="M325.224 172.852H332.896C333.845 172.852 334.448 173.371 334.448 174.321V231.756C334.448 232.793 333.845 233.311 332.896 233.311H325.224C324.189 233.311 323.672 232.793 323.672 231.756V174.321C323.672 173.371 324.189 172.852 325.224 172.852Z" fill="white"/>
<path d="M391.175 188.312V231.756C391.175 232.793 390.572 233.311 389.623 233.311H381.951C381.002 233.311 380.485 232.793 380.485 231.756V187.535C380.485 183.994 379.019 182.007 376.261 182.007C373.674 182.007 372.122 183.994 372.122 187.535V231.756C372.122 232.793 371.605 233.311 370.571 233.311H362.984C362.036 233.311 361.519 232.793 361.519 231.756V187.535C361.519 183.994 359.88 182.007 357.294 182.007C354.708 182.007 353.156 183.994 353.156 187.535V231.756C353.156 232.793 352.639 233.311 351.604 233.311H344.018C342.983 233.311 342.466 232.793 342.466 231.756V188.312C342.466 178.38 348.328 171.816 357.294 171.816C361.346 171.816 364.363 173.37 366.777 175.616C369.278 173.37 372.295 171.816 376.261 171.816C385.313 171.816 391.175 178.38 391.175 188.312Z" fill="white"/>
<path d="M400.745 172.852H408.417C409.366 172.852 409.969 173.371 409.969 174.321V231.756C409.969 232.793 409.366 233.311 408.417 233.311H400.745C399.71 233.311 399.193 232.793 399.193 231.756V174.321C399.193 173.371 399.71 172.852 400.745 172.852Z" fill="white"/>
<path d="M444.799 174.321V181.317C444.799 182.267 444.281 182.785 443.247 182.785H435.057V231.756C435.057 232.793 434.539 233.311 433.591 233.311H425.832C424.884 233.311 424.366 232.793 424.366 231.756V182.785H416.09C415.142 182.785 414.625 182.267 414.625 181.317V174.321C414.625 173.371 415.142 172.852 416.09 172.852H443.247C444.281 172.852 444.799 173.371 444.799 174.321Z" fill="white"/>
<path d="M474.024 223.724C475.059 223.724 475.576 224.242 475.576 225.192V232.188C475.576 233.138 475.059 233.657 474.024 233.657H464.196C454.885 233.657 449.454 227.006 449.454 218.024V174.321C449.454 173.371 449.971 172.852 451.006 172.852H458.851C459.885 172.852 460.403 173.371 460.403 174.321V217.505C460.403 221.565 462.558 223.724 465.144 223.724H474.024Z" fill="white"/>
<path d="M477.128 217.419V188.658C477.128 179.071 483.335 172.507 492.646 172.507H501.698C502.646 172.507 503.25 173.025 503.25 173.975V180.885C503.25 181.921 502.646 182.439 501.698 182.439H493.939C490.232 182.439 487.99 185.03 487.99 189.003V197.986H499.543C500.577 197.986 501.094 198.59 501.094 199.541V206.105C501.094 207.141 500.577 207.659 499.543 207.659H487.99V217.16C487.99 221.133 490.232 223.724 493.939 223.724H501.698C502.646 223.724 503.25 224.242 503.25 225.192V232.188C503.25 233.138 502.646 233.657 501.698 233.657H492.646C483.335 233.657 477.128 227.092 477.128 217.419Z" fill="white"/>
<path d="M507.215 216.383C507.215 215.346 507.733 214.828 508.681 214.828H516.44C517.388 214.828 517.906 215.346 517.992 216.296C518.164 221.651 519.889 224.242 523.078 224.242C526.096 224.242 527.648 222.342 527.648 219.233C527.648 207.314 507.733 202.304 507.733 186.067C507.733 177.171 513.681 171.816 522.475 171.816C531.268 171.816 537.303 178.294 537.648 189.003C537.648 190.04 537.131 190.558 536.182 190.558H528.51C527.561 190.558 526.958 190.04 526.958 189.003C526.785 184.08 525.32 181.835 522.647 181.835C519.975 181.835 518.423 183.217 518.423 186.067C518.423 196.69 538.51 201.786 538.51 219.233C538.51 228.561 532.217 234.347 522.906 234.347C513.595 234.347 507.56 227.524 507.215 216.383Z" fill="white"/>
<path d="M542.648 216.383C542.648 215.346 543.166 214.828 544.114 214.828H551.873C552.821 214.828 553.339 215.346 553.425 216.296C553.597 221.651 555.321 224.242 558.511 224.242C561.529 224.242 563.08 222.342 563.08 219.233C563.08 207.314 543.166 202.304 543.166 186.067C543.166 177.171 549.114 171.816 557.908 171.816C566.701 171.816 572.736 178.294 573.081 189.003C573.081 190.04 572.564 190.558 571.615 190.558H563.942C562.994 190.558 562.391 190.04 562.391 189.003C562.218 184.08 560.753 181.835 558.08 181.835C555.408 181.835 553.856 183.217 553.856 186.067C553.856 196.69 573.943 201.786 573.943 219.233C573.943 228.561 567.65 234.347 558.339 234.347C549.028 234.347 542.993 227.524 542.648 216.383Z" fill="white"/>
<path d="M597.651 231.769V188.238C597.651 178.392 603.858 171.915 613.083 171.915C622.307 171.915 628.601 178.392 628.601 188.238V231.769C628.601 232.805 627.997 233.323 627.049 233.323H619.29C618.342 233.323 617.738 232.805 617.738 231.769V214.754H608.427V231.769C608.427 232.805 607.91 233.323 606.962 233.323H599.203C598.168 233.323 597.651 232.805 597.651 231.769ZM617.738 204.809V187.449C617.738 184.08 616.014 182.007 613.083 182.007C610.152 182.007 608.427 184.08 608.427 187.449V204.809H617.738Z" fill="white"/>
<path d="M667.051 213.705V217.333C667.051 227.265 660.844 233.657 651.705 233.657H640.757C638.17 233.657 636.188 231.756 636.188 229.079V187.967C636.188 178.294 642.222 171.902 651.016 171.902C659.809 171.902 666.017 178.294 666.017 187.967V191.422C666.103 195.913 664.379 199.627 661.447 202.045C664.982 204.723 667.051 208.782 667.051 213.705ZM646.964 197.986H651.102C653.688 197.986 655.24 195.999 655.24 192.631V187.017C655.24 183.908 653.602 181.921 650.93 181.921C648.429 181.921 646.964 183.908 646.964 187.017V197.986ZM656.102 213.36C656.102 209.732 654.378 207.573 651.447 207.573H646.964V223.81H651.447C654.378 223.81 656.102 221.738 656.102 218.196V213.36Z" fill="white"/>
<path d="M674.81 172.852H682.483C683.431 172.852 684.035 173.371 684.035 174.321V231.756C684.035 232.793 683.431 233.311 682.483 233.311H674.81C673.776 233.311 673.258 232.793 673.258 231.756V174.321C673.258 173.371 673.776 172.852 674.81 172.852Z" fill="white"/>
<path d="M715.933 223.724C716.967 223.724 717.485 224.242 717.485 225.192V232.188C717.485 233.138 716.967 233.657 715.933 233.657H706.105C696.794 233.657 691.363 227.006 691.363 218.024V174.321C691.363 173.371 691.88 172.852 692.914 172.852H700.76C701.794 172.852 702.311 173.371 702.311 174.321V217.505C702.311 221.565 704.467 223.724 707.053 223.724H715.933Z" fill="white"/>
<path d="M723.433 172.852H731.106C732.054 172.852 732.658 173.371 732.658 174.321V231.756C732.658 232.793 732.054 233.311 731.106 233.311H723.433C722.399 233.311 721.881 232.793 721.881 231.756V174.321C721.881 173.371 722.399 172.852 723.433 172.852Z" fill="white"/>
<path d="M767.487 174.321V181.317C767.487 182.267 766.97 182.785 765.935 182.785H757.745V231.756C757.745 232.793 757.228 233.311 756.28 233.311H748.521C747.572 233.311 747.055 232.793 747.055 231.756V182.785H738.779C737.83 182.785 737.313 182.267 737.313 181.317V174.321C737.313 173.371 737.83 172.852 738.779 172.852H765.935C766.97 172.852 767.487 173.371 767.487 174.321Z" fill="white"/>
<path d="M774.039 172.852H781.712C782.66 172.852 783.264 173.371 783.264 174.321V231.756C783.264 232.793 782.66 233.311 781.712 233.311H774.039C773.005 233.311 772.487 232.793 772.487 231.756V174.321C772.487 173.371 773.005 172.852 774.039 172.852Z" fill="white"/>
<path d="M790.678 217.419V188.658C790.678 179.071 796.885 172.507 806.196 172.507H815.248C816.196 172.507 816.8 173.025 816.8 173.975V180.885C816.8 181.921 816.196 182.439 815.248 182.439H807.489C803.782 182.439 801.541 185.03 801.541 189.003V197.986H813.093C814.127 197.986 814.645 198.59 814.645 199.541V206.105C814.645 207.141 814.127 207.659 813.093 207.659H801.541V217.16C801.541 221.133 803.782 223.724 807.489 223.724H815.248C816.196 223.724 816.8 224.242 816.8 225.192V232.188C816.8 233.138 816.196 233.657 815.248 233.657H806.196C796.885 233.657 790.678 227.092 790.678 217.419Z" fill="white"/>
<path d="M820.766 216.383C820.766 215.346 821.283 214.828 822.231 214.828H829.99C830.939 214.828 831.456 215.346 831.542 216.296C831.714 221.651 833.439 224.242 836.628 224.242C839.646 224.242 841.198 222.342 841.198 219.233C841.198 207.314 821.283 202.304 821.283 186.067C821.283 177.171 827.231 171.816 836.025 171.816C844.819 171.816 850.853 178.294 851.198 189.003C851.198 190.04 850.681 190.558 849.733 190.558H842.06C841.112 190.558 840.508 190.04 840.508 189.003C840.336 184.08 838.87 181.835 836.197 181.835C833.525 181.835 831.973 183.217 831.973 186.067C831.973 196.69 852.06 201.786 852.06 219.233C852.06 228.561 845.767 234.347 836.456 234.347C827.145 234.347 821.11 227.524 820.766 216.383Z" fill="white"/>
<path d="M876 231.953V188.422C876 178.576 882.207 172.099 891.432 172.099C900.656 172.099 906.95 178.576 906.95 188.422V231.953C906.95 232.989 906.346 233.507 905.398 233.507H897.639C896.691 233.507 896.087 232.989 896.087 231.953V214.938H886.776V231.953C886.776 232.989 886.259 233.507 885.311 233.507H877.552C876.517 233.507 876 232.989 876 231.953ZM896.087 204.993V187.633C896.087 184.264 894.363 182.192 891.432 182.192C888.501 182.192 886.776 184.264 886.776 187.633V204.993H896.087Z" fill="white"/>
<path d="M963.014 174.321V217.851C963.014 227.783 957.152 234.347 948.1 234.347C944.048 234.347 941.03 232.793 938.616 230.461C936.202 232.793 933.185 234.347 929.133 234.347C920.167 234.347 914.305 227.783 914.305 217.851V174.321C914.305 173.371 914.822 172.852 915.857 172.852H923.443C924.478 172.852 924.995 173.371 924.995 174.321V218.628C924.995 222.169 926.461 224.156 929.133 224.156C931.806 224.156 933.358 222.169 933.358 218.628V174.321C933.358 173.371 933.875 172.852 934.823 172.852H942.41C943.444 172.852 943.961 173.371 943.961 174.321V218.628C943.961 222.169 945.599 224.156 948.1 224.156C950.858 224.156 952.324 222.169 952.324 218.628V174.321C952.324 173.371 952.841 172.852 953.79 172.852H961.462C962.411 172.852 963.014 173.371 963.014 174.321Z" fill="white"/>
<path d="M970.675 231.769V188.238C970.675 178.392 976.882 171.915 986.106 171.915C995.331 171.915 1001.62 178.392 1001.62 188.238V231.769C1001.62 232.805 1001.02 233.323 1000.07 233.323H992.314C991.365 233.323 990.762 232.805 990.762 231.769V214.754H981.451V231.769C981.451 232.805 980.934 233.323 979.985 233.323H972.226C971.192 233.323 970.675 232.805 970.675 231.769ZM990.774 204.809V187.449C990.774 184.08 989.05 182.007 986.119 182.007C983.188 182.007 981.463 184.08 981.463 187.449V204.809H990.774Z" fill="white"/>
<path d="M1009.21 231.769V188.238C1009.21 178.479 1015.42 171.828 1024.56 171.828C1033.7 171.828 1040.25 178.479 1040.25 188.238V195.753C1040.25 201.885 1037.83 206.549 1033.87 209.313L1042.23 231.769C1042.49 232.719 1041.71 233.323 1040.76 233.323H1032.4C1031.45 233.323 1031.19 232.719 1030.85 231.855L1024.13 212.076H1020.07V231.769C1020.07 232.805 1019.56 233.323 1018.61 233.323H1010.76C1009.73 233.323 1009.21 232.805 1009.21 231.769ZM1024.04 202.132C1027.57 202.132 1029.38 199.972 1029.38 196.086V187.449C1029.38 184.08 1027.57 182.007 1024.64 182.007C1021.88 182.007 1020.07 184.08 1020.07 187.449V202.132H1024.04Z" fill="white"/>
<path d="M1048.44 229.178V177.01C1048.44 174.074 1050.08 172.519 1053.01 172.519H1063.61C1073.01 172.519 1079.13 179.083 1079.13 188.757V217.431C1079.13 227.105 1072.92 233.669 1063.61 233.669H1053.01C1050.08 233.669 1048.44 232.114 1048.44 229.178ZM1063.01 223.724C1066.46 223.724 1068.27 221.565 1068.27 217.764V188.399C1068.27 184.512 1066.54 182.439 1063.01 182.439H1059.21V223.724H1063.01Z" fill="white"/>
<path d="M1084.39 216.383C1084.39 215.346 1084.9 214.828 1085.85 214.828H1093.61C1094.56 214.828 1095.08 215.346 1095.16 216.296C1095.34 221.651 1097.06 224.242 1100.25 224.242C1103.27 224.242 1104.82 222.342 1104.82 219.233C1104.82 207.314 1084.9 202.304 1084.9 186.067C1084.9 177.171 1090.85 171.816 1099.65 171.816C1108.44 171.816 1114.47 178.294 1114.82 189.003C1114.82 190.04 1114.3 190.558 1113.35 190.558H1105.68C1104.73 190.558 1104.13 190.04 1104.13 189.003C1103.96 184.08 1102.49 181.835 1099.82 181.835C1097.15 181.835 1095.59 183.217 1095.59 186.067C1095.59 196.69 1115.68 201.786 1115.68 219.233C1115.68 228.561 1109.39 234.347 1100.08 234.347C1090.77 234.347 1084.73 227.524 1084.39 216.383Z" fill="white"/>
<path d="M1148.18 223.638H1164.91C1165.86 223.638 1166.37 224.242 1166.37 225.192V231.756C1166.37 232.793 1165.86 233.311 1164.91 233.311H1142.23C1139.3 233.311 1137.67 231.67 1137.67 228.733V226.747C1137.67 205.068 1156.37 197.813 1156.37 186.24C1156.37 183.648 1155.43 181.316 1152.49 181.316C1149.74 181.316 1148.27 183.476 1148.1 187.362C1148.01 188.399 1147.41 188.917 1146.55 188.917H1139.99C1139.05 188.917 1138.53 188.399 1138.61 187.362C1138.96 177.603 1143.96 171.816 1152.49 171.816C1161.55 171.816 1166.37 178.294 1166.37 185.894C1166.37 202.823 1148.18 210.337 1148.18 223.638Z" fill="white"/>
<path d="M1171.81 218.455V187.708C1171.81 178.294 1177.84 171.816 1186.46 171.816C1195.08 171.816 1201.12 178.294 1201.12 187.708V218.455C1201.12 227.87 1195.08 234.347 1186.46 234.347C1177.84 234.347 1171.81 227.87 1171.81 218.455ZM1190.17 184.512C1189.56 182.698 1188.27 181.576 1186.46 181.576C1183.87 181.576 1182.15 183.562 1182.15 186.499V211.114L1190.17 184.512ZM1190.77 219.578V194.79L1182.75 221.478C1183.36 223.378 1184.65 224.501 1186.46 224.501C1189.13 224.501 1190.77 222.601 1190.77 219.578Z" fill="white"/>
<path d="M1217.07 223.638H1233.79C1234.74 223.638 1235.26 224.242 1235.26 225.192V231.756C1235.26 232.793 1234.74 233.311 1233.79 233.311H1211.12C1208.19 233.311 1206.55 231.67 1206.55 228.733V226.747C1206.55 205.068 1225.26 197.813 1225.26 186.24C1225.26 183.648 1224.31 181.316 1221.38 181.316C1218.62 181.316 1217.15 183.476 1216.98 187.362C1216.89 188.399 1216.29 188.917 1215.43 188.917H1208.88C1207.93 188.917 1207.41 188.399 1207.5 187.362C1207.84 177.603 1212.84 171.816 1221.38 171.816C1230.43 171.816 1235.26 178.294 1235.26 185.894C1235.26 202.823 1217.07 210.337 1217.07 223.638Z" fill="white"/>
<path d="M1240.92 218.639V187.978C1240.92 178.478 1246.78 172 1255.49 172C1264.2 172 1269.89 178.132 1269.97 187.374C1269.97 188.324 1269.46 188.842 1268.51 188.842H1261.18C1260.23 188.842 1259.63 188.324 1259.63 187.374C1259.54 183.487 1257.9 181.76 1255.49 181.76C1252.82 181.76 1251.27 183.833 1251.27 187.201V195.838C1252.9 194.542 1254.8 193.851 1257.47 193.851C1264.71 193.851 1270.23 200.243 1270.23 208.793V218.639C1270.23 228.054 1264.2 234.532 1255.58 234.532C1246.95 234.532 1240.92 228.054 1240.92 218.639ZM1259.89 219.33V208.707C1259.89 205.598 1258.16 203.525 1255.58 203.525C1252.99 203.525 1251.27 205.252 1251.27 208.707V219.33C1251.27 222.872 1253.08 224.685 1255.58 224.685C1258.08 224.685 1259.89 222.785 1259.89 219.33Z" fill="white"/>
</g>
<path d="M0.570256 724.834C46.9202 691.286 83.7647 668.447 83.7647 668.447C115.579 649.217 134.975 637.267 162.195 625.752C175.995 619.903 188.432 615.486 204.61 615.208C213.39 615.068 234.586 615.007 253.94 629.045C258.785 632.563 269.207 640.116 274.985 653.692C276.864 658.111 280.405 666.434 279.496 677.075C278.946 683.541 277.105 686.59 278.626 687.92C282.761 691.547 303.801 675.323 312.03 669.051C313.372 668.023 339.04 650.099 390.361 614.272C430.978 585.913 447.224 577.593 465.794 571.395C485.236 564.904 498.098 563.813 509.71 564.841C517.991 565.595 541.12 569.313 558.679 585.511C570.545 596.453 574.793 605.375 577.32 612.028C580.878 621.361 581.254 631.291 579.601 641.15C576.863 657.666 555.437 674.553 558.418 679.155C560.503 682.39 572.067 677.233 594.21 672.661C612.44 668.895 623.474 666.625 636.22 667.696C661.372 669.823 677.158 681.947 684.194 688.221C691.44 694.668 708.705 709.85 712.397 732.369C713.218 737.343 716.568 756.655 704.923 774.291C698.079 784.67 689.045 789.942 680.061 795.166C667.191 802.662 656.174 805.636 644.164 808.79C599.133 820.612 584.117 823.948 584.117 823.948C526.488 836.794 520.109 839.557 507.054 843.531C486.067 851.124 489.597 849.566 469.513 859.691C453.135 867.938 443.413 869.129 434.385 869.62C407.03 871.123 386.275 861.086 380.037 856.693C368.092 848.308 355.347 834.849 353.015 820.304C352.062 814.34 352.849 807.162 349.503 805.991C346.582 804.973 341.146 808.425 337.288 811.763C331.231 817.011 320.543 826.195 311.836 833.472C295.101 847.443 274.415 860.793 251.107 875.804C219.445 896.23 206.561 901.913 196.844 905.588C176.969 913.113 166.823 913.539 161.316 913.449C141.172 913.127 126.235 904.788 119.54 900.382C113.476 896.378 103.171 889.435 96.339 876.127C94.5092 872.578 87.5335 858.015 91.0039 840.792C92.5512 833.151 95.6087 827.607 96.3644 826.303C97.101 825.004 97.5809 824.114 98.6932 822.612C102.007 818.092 103.875 816.51 104.632 814.805C106.417 810.753 95.7358 820.281 87.5154 826.494C77.9338 833.738 77.9119 834.239 73.9422 836.795C62.4482 844.156 50.9619 846.03 47.6661 846.552C27.9882 849.568 14.0458 846.592 4.89246 842.441C-4.19655 838.317 -17.2221 829.038 -26.0209 817.921C-37.2461 803.747 -41.1193 779.368 -35.3327 765.759C-33.0503 760.393 -30.9386 755.269 -24.6941 747.923C-14.1847 735.559 -3.92568 728.04 0.493987 724.848L0.570256 724.834Z" fill="#FDC616"/>
</g>
<defs>
<clipPath id="clip0_8_311">
<rect width="1440" height="740" fill="white"/>
</clipPath>
<clipPath id="clip1_8_311">
<rect width="1179" height="149" fill="white" transform="translate(91 131)"/>
</clipPath>
</defs>
</svg>
